<?xml version="1.0" standalone="no"?><!DOCTYPE svg PUBLIC "-//W3C//DTD SVG 1.1//EN" "http://www.w3.org/Graphics/SVG/1.1/DTD/svg11.dtd"><svg t="1482487474790" class="icon" style="" viewBox="0 0 1024 1024" version="1.1" xmlns="http://www.w3.org/2000/svg" p-id="2186" xmlns:xlink="http://www.w3.org/1999/xlink" width="200" height="200"><defs><style type="text/css"></style></defs><path d="M300.304 490.897c-0.486 0.973-1.338 1.824-1.703 2.797-8.514 17.758-5.717 39.651 9.365 53.882l343.725 325.116c18.731 17.758 48.287 16.907 66.045-1.824 17.758-18.731 16.907-48.287-1.824-66.045l-308.453-291.79 307.236-296.047c18.609-17.881 19.096-47.436 1.216-66.045-9.122-9.487-21.407-14.351-33.57-14.352-11.676 0-23.353 4.378-32.353 13.137l-340.563 328.278c-0.608 0.608-0.851 1.581-1.581 2.189-0.487 0.487-0.973 0.851-1.581 1.338-2.797 2.797-4.135 6.203-5.959 9.365v0zM300.304 490.897z" p-id="2187" fill="#333f57"></path></svg>