<?xml version="1.0" standalone="no"?><!DOCTYPE svg PUBLIC "-//W3C//DTD SVG 1.1//EN" "http://www.w3.org/Graphics/SVG/1.1/DTD/svg11.dtd"><svg t="1486432865750" class="icon" style="" viewBox="0 0 1024 1024" version="1.1" xmlns="http://www.w3.org/2000/svg" p-id="12727" xmlns:xlink="http://www.w3.org/1999/xlink" width="200" height="200"><defs><style type="text/css"></style></defs><path d="M511.22686 62.051241c-247.491628 0-448.123122 200.623273-448.123122 448.104761 0 247.481488 200.631494 448.104761 448.123122 448.104761 247.492651 0 448.123122-200.624297 448.123122-448.104761C959.349982 262.674515 758.719512 62.051241 511.22686 62.051241zM510.72849 894.480134c-211.931304 0-383.736104-171.797761-383.736104-383.720382 0-211.92262 171.8048-383.720382 383.736104-383.720382 211.932327 0 383.736104 171.797761 383.736104 383.720382C894.464594 722.682373 722.659794 894.480134 510.72849 894.480134z" p-id="12728"></path><path d="M542.962933 285.678438 478.058101 285.678438 478.058101 478.060003 286.626507 478.060003 286.626507 542.016641 478.058101 542.016641 478.058101 734.398206 542.962933 734.398206 542.962933 542.016641 735.430155 542.016641 735.430155 478.060003 542.962933 478.060003Z" p-id="12729"></path></svg>