<?xml version="1.0" standalone="no"?><!DOCTYPE svg PUBLIC "-//W3C//DTD SVG 1.1//EN" "http://www.w3.org/Graphics/SVG/1.1/DTD/svg11.dtd"><svg t="1484013209111" class="icon" style="" viewBox="0 0 1024 1024" version="1.1" xmlns="http://www.w3.org/2000/svg" p-id="2018" xmlns:xlink="http://www.w3.org/1999/xlink" width="200" height="200"><defs><style type="text/css"></style></defs><path d="M618.666667 853.333333l87.466667-87.466667-134.4-134.4 0 0 0 0 59.733333-59.733333 134.4 134.4 87.466667-87.466667 0 234.666667L618.666667 853.333333zM631.466667 452.266667l-59.733333-59.733333 134.4-134.4-87.466667-87.466667 234.666667 0 0 234.666667-87.466667-87.466667L631.466667 452.266667zM452.266667 392.533333 452.266667 392.533333l-59.733333 59.733333-134.4-134.4-87.466667 87.466667 0-234.666667 234.666667 0-87.466667 87.466667L452.266667 392.533333 452.266667 392.533333zM392.533333 571.733333l59.733333 59.733333-134.4 134.4 87.466667 87.466667-234.666667 0 0-234.666667 87.466667 87.466667L392.533333 571.733333z" p-id="2019"></path></svg>