<?xml version="1.0" standalone="no"?><!DOCTYPE svg PUBLIC "-//W3C//DTD SVG 1.1//EN" "http://www.w3.org/Graphics/SVG/1.1/DTD/svg11.dtd"><svg t="1486435466287" class="icon" style="" viewBox="0 0 1024 1024" version="1.1" xmlns="http://www.w3.org/2000/svg" p-id="9269" xmlns:xlink="http://www.w3.org/1999/xlink" width="200" height="200"><defs><style type="text/css"></style></defs><path d="M990.72 508.16c0-265.15456-214.85056-480-480-480C245.632 28.16 30.72 243.00544 30.72 508.16 30.72 773.248 245.632 988.16 510.72 988.16c265.14944 0 480-214.912 480-480z m-310.97344-109.37856a32.01536 32.01536 0 0 1 45.24544 0c6.21056 6.272 9.344 14.45888 9.344 22.58944s-3.13344 16.38912-9.344 22.66112l-191.54944 191.488a32.01536 32.01536 0 0 1-45.24544 0l-192.83456-192.768c-12.48256-12.48256-12.48256-32.768 0-45.25056s32.768-12.48256 45.25056 0l170.17344 170.17856 168.96-168.89856z" p-id="9270"></path></svg>