<?xml version="1.0" standalone="no"?><!DOCTYPE svg PUBLIC "-//W3C//DTD SVG 1.1//EN" "http://www.w3.org/Graphics/SVG/1.1/DTD/svg11.dtd"><svg t="1484645218494" class="icon" style="" viewBox="0 0 1408 1024" version="1.1" xmlns="http://www.w3.org/2000/svg" p-id="4366" xmlns:xlink="http://www.w3.org/1999/xlink" width="275" height="200"><defs><style type="text/css"></style></defs><path d="M369.792 64C377.664 64 384 58.304 384 51.2L384 12.8C384 5.696 377.664 0 369.792 0L270.208 0C262.336 0 256 5.696 256 12.8l0 38.4C256 58.24 262.336 64 270.208 64L369.792 64z" p-id="4367"></path><path d="M736 544m-224 0a3.5 3.5 0 1 0 448 0 3.5 3.5 0 1 0-448 0Z" p-id="4368"></path><path d="M0 256l0 640c0 128 128 128 128 128l1152 0c0 0 128 0 128-128L1408 256c0-128-128-128-128-128l-256 0-64-128L512 0 448 128 128 128C128 128 0 128 0 256zM1088 256c35.328 0 64 28.672 64 64 0 35.328-28.672 64-64 64-35.328 0-64-28.672-64-64C1024 284.672 1052.672 256 1088 256zM736 256C895.04 256 1024 384.96 1024 544c0 159.04-128.96 288-288 288C576.96 832 448 703.04 448 544 448 384.96 576.96 256 736 256z" p-id="4369"></path></svg>