<?xml version="1.0" standalone="no"?>
<!DOCTYPE svg PUBLIC "-//W3C//DTD SVG 1.1//EN" "http://www.w3.org/Graphics/SVG/1.1/DTD/svg11.dtd" >
<svg xmlns="http://www.w3.org/2000/svg">
<metadata>
Created by FontForge 20120731 at Fri Feb 24 16:13:15 2017
 By admin
</metadata>
<defs>
<font id="iconfont" horiz-adv-x="1024" >
  <font-face 
    font-family="iconfont"
    font-weight="500"
    font-stretch="normal"
    units-per-em="1024"
    panose-1="2 0 6 3 0 0 0 0 0 0"
    ascent="896"
    descent="-128"
    x-height="792"
    bbox="0 -212 1214 896.439"
    underline-thickness="0"
    underline-position="0"
    unicode-range="U+0078-ED3A"
  />
<missing-glyph 
 />
    <glyph glyph-name=".notdef" 
 />
    <glyph glyph-name=".notdef" 
 />
    <glyph glyph-name=".null" horiz-adv-x="0" 
 />
    <glyph glyph-name="nonmarkingreturn" horiz-adv-x="341" 
 />
    <glyph glyph-name="x" unicode="x" horiz-adv-x="1001" 
d="M281 543q-27 -1 -53 -1h-83q-18 0 -36.5 -6t-32.5 -18.5t-23 -32t-9 -45.5v-76h912v41q0 16 -0.5 30t-0.5 18q0 13 -5 29t-17 29.5t-31.5 22.5t-49.5 9h-133v-97h-438v97zM955 310v-52q0 -23 0.5 -52t0.5 -58t-10.5 -47.5t-26 -30t-33 -16t-31.5 -4.5q-14 -1 -29.5 -0.5
t-29.5 0.5h-32l-45 128h-439l-44 -128h-29h-34q-20 0 -45 1q-25 0 -41 9.5t-25.5 23t-13.5 29.5t-4 30v167h911zM163 247q-12 0 -21 -8.5t-9 -21.5t9 -21.5t21 -8.5q13 0 22 8.5t9 21.5t-9 21.5t-22 8.5zM316 123q-8 -26 -14 -48q-5 -19 -10.5 -37t-7.5 -25t-3 -15t1 -14.5
t9.5 -10.5t21.5 -4h37h67h81h80h64h36q23 0 34 12t2 38q-5 13 -9.5 30.5t-9.5 34.5q-5 19 -11 39h-368zM336 498v228q0 11 2.5 23t10 21.5t20.5 15.5t34 6h188q31 0 51.5 -14.5t20.5 -52.5v-227h-327z" />
    <glyph glyph-name="bangzhu" unicode="&#xe615;" 
d="M514 842q95 0 178.5 -36.5t146 -98.5t98.5 -145.5t36 -178.5t-36 -178t-98.5 -145.5t-146 -98.5t-178.5 -36t-178 36t-145.5 98.5t-98.5 145.5t-36 178t36 178.5t98.5 145.5t145.5 98.5t178 36.5zM515 70q27 0 45 17.5t18 43.5q0 27 -18 45t-45 18t-44.5 -18t-17.5 -45
q0 -26 17.5 -43.5t44.5 -17.5zM567 322q-1 16 20.5 34.5t48.5 41t49.5 50.5t24.5 65q2 40 -8.5 75t-34 60t-61 39.5t-87.5 14.5q-62 0 -103.5 -22t-67 -53t-36 -64.5t-9.5 -55.5q1 -27 17 -39t34.5 -12.5t33.5 10t15 31.5q0 12 8 30t21 34.5t32 27.5t43 11q46 0 73.5 -23
t25.5 -58q0 -17 -10 -32t-26 -29t-34 -27.5t-34 -28.5t-26.5 -32.5t-11.5 -37.5l1 -39q0 -15 14.5 -29t37.5 -15q24 1 37.5 15.5t12.5 32.5v25z" />
    <glyph glyph-name="suo" unicode="&#xe600;" horiz-adv-x="1000" 
d="M748 369q22 35 22 87q0 107 -75.5 182.5t-182.5 75.5t-182.5 -75.5t-75.5 -182.5q0 -52 22 -87q-22 -6 -45.5 -20.5t-40.5 -30.5t-31.5 -31.5t-21.5 -24.5l-8 -10v-338h767v338q1 0 -7 9.5t-22.5 24.5t-32 31t-41 30.5t-45.5 21.5zM511.5 624q69.5 0 119 -49.5
t49.5 -118.5q0 -52 -33 -86q-33 -5 -66.5 -12.5t-50.5 -13.5l-17 -6q-62 22 -136 32q-33 33 -33 86q0 69 49 118.5t118.5 49.5zM559 144v-107h-92v107q-31 23 -31 62q0 32 22.5 54t54.5 22t54.5 -22t22.5 -54q0 -39 -31 -62z" />
    <glyph glyph-name="fanhui" unicode="&#xe601;" horiz-adv-x="1000" 
d="M920 78q-16 0 -19 16q-2 7 -6 19t-21.5 43.5t-41.5 57.5q-109 114 -319 119v-162q0 -12 -11 -17.5t-21 1.5l-383 277q-9 6 -9 16.5t9 16.5l383 279q10 7 21 1.5t11 -17.5v-173q58 -2 117 -18q120 -31 196 -109q118 -119 114 -330q0 -8 -5 -13.5t-13 -6.5h-2zM493 374
q133 0 233 -42q81 -33 136 -93q17 -18 31 -38q-20 122 -95 199q-38 38 -86.5 64t-94.5 35.5t-72 13t-47 3.5q-3 0 -5 -1v0q-8 0 -14 6t-6 14v153l-330 -239l330 -239v144q0 8 5.5 14t14.5 6z" />
    <glyph glyph-name="guanbi4" unicode="&#xe60e;" 
d="M752 540l-13 13q-11 11 -26 11t-26 -11l-173 -173l-169 169q-11 11 -26.5 11t-26.5 -11l-13 -13q-11 -11 -11 -26.5t11 -26.5l168 -169l-169 -170q-11 -11 -11 -26t11 -26l13 -13q11 -11 26 -11t26 11l170 170l178 -179q11 -11 26.5 -11t26.5 11l14 13q11 11 11 26.5
t-11 26.5l-179 179l173 173q11 11 11 26t-11 26z" />
    <glyph glyph-name="add" unicode="&#xe62b;" 
d="M826 370h-244v244q0 29 -20.5 49.5t-49.5 20.5t-49.5 -20.5t-20.5 -49.5v-244h-244q-29 0 -49 -20.5t-20 -49t20 -49t49 -20.5h244v-244q0 -29 20.5 -49.5t49.5 -20.5t49.5 20.5t20.5 49.5v244h244q29 0 49 20.5t20 49t-20 49t-49 20.5z" />
    <glyph glyph-name="fanhui1" unicode="&#xe602;" 
d="M738 642l-75 75l-350 -350v0l-74 -74v-1v0l75 -75v0l345 -345l74 74l-345 346z" />
    <glyph glyph-name="iconfontpraise" unicode="&#xe608;" 
d="M841 403h-210q61 225 -18 296q-19 18 -38 20q-20 0 -31.5 -7.5t-14 -16t-3.5 -18.5t-2 -12q0 -41 -16 -83t-38.5 -73t-45.5 -56t-39 -38l-16 -12v-418q0 -27 27 -41.5t51 -14.5h315q13 0 26.5 19.5t20.5 39.5l7 19q34 118 53.5 204.5t21.5 113.5l3 27q0 25 -13.5 37.5
t-26.5 12.5zM282 402h-125q-12 0 -18.5 -6t-7.5 -13l-1 -6l26 -421q0 -12 7 -18.5t14 -7.5l6 -1h109q10 0 15.5 4.5t6.5 9.5v4v424q0 14 -8 22t-16 9h-8z" />
    <glyph glyph-name="jianhao" unicode="&#xe625;" 
d="M512 -132q-88 0 -169 34q-78 33 -138.5 93.5t-93.5 138.5q-34 81 -34 169.5t34 168.5q33 79 93.5 139t138.5 93q81 34 169 34t169 -34q78 -33 138.5 -93t93.5 -139q34 -80 34 -168.5t-34 -169.5q-33 -78 -93.5 -138.5t-138.5 -93.5q-81 -34 -169 -34zM512 687
q-77 0 -147 -29t-124.5 -83.5t-83.5 -124.5t-29 -147t29 -147t83.5 -124.5t124.5 -83.5t147 -29t147 29t124.5 83.5t83.5 124.5t29 147t-29 147t-83.5 124.5t-124.5 83.5t-147 29zM758 277h-492q-10 0 -17.5 7.5t-7.5 18t7.5 18t17.5 7.5h492q10 0 17.5 -7.5t7.5 -18
t-7.5 -18t-17.5 -7.5z" />
    <glyph glyph-name="daochu" unicode="&#xe62d;" 
d="M778 178q-4 12 -16 12l-604 1q-5 0 -7.5 -4t-0.5 -9l104 -313q4 -13 17 -12l599 -1q5 0 7.5 4t1.5 9zM879 250q0 -17 -12 -29t-29 -12h-138q-17 0 -29 12t-12 29v83q0 17 12 29t29 12h138q17 0 29 -12t12 -29v-83zM748 492v-101l133 178l-133 173v-95q-5 1 -13.5 1
t-35 -2t-52.5 -6.5t-62 -16t-67.5 -28t-64.5 -45t-57 -65t-41.5 -89.5t-22.5 -116h25q18 30 39 57t57.5 60.5t77 55.5t97.5 34t120 5zM865 280h-508q-8 -14 -15 -26.5t-9 -19.5l-3 -6q0 27 2 52h-67q-6 0 -10 -4t-4 -10v-61h520q13 0 17 -13l91 -284v358q0 6 -4 10t-10 4z
" />
    <glyph glyph-name="tianjiarenqun" unicode="&#xe660;" 
d="M783 37q0 -10 -6.5 -16.5t-16 -6.5t-16.5 6.5t-7 16.5q0 80 -50 142t-127 80v1q-23 7 -23 31q0 12 7.5 21t19.5 11q37 16 59.5 49.5t22.5 75.5q0 56 -40 96.5t-97 40.5v0q-9 0 -15 6.5t-6 15.5t6 15.5t15 7.5v0h0.5h0.5v0h1.5h0.5q75 -1 127.5 -54.5t52.5 -127.5
q0 -49 -24 -90t-64 -65q80 -30 129.5 -99.5t49.5 -156.5v0zM422 293q79 -30 128.5 -99.5t49.5 -156.5q0 -10 -6.5 -16.5t-16 -6.5t-16 6.5t-6.5 16.5q0 94 -67 161t-161.5 67t-161.5 -67t-67 -161q0 -10 -6.5 -16.5t-16 -6.5t-16.5 6.5t-7 16.5q0 87 50 156.5t129 99.5
q-40 24 -63.5 65t-23.5 90q0 75 53.5 128.5t129 53.5t129 -53.5t53.5 -128.5q0 -49 -23.5 -90t-63.5 -65v0zM326 585q-56 0 -96.5 -40.5t-40.5 -97t40.5 -96.5t97 -40t96.5 40t40 96.5t-40 97t-97 40.5v0zM952 304h-154q-9 0 -14.5 6t-5.5 14.5t5.5 14t14.5 5.5h154
q9 0 14.5 -5.5t5.5 -14t-5.5 -14.5t-14.5 -6zM878 229q-8 0 -14 6t-6 14v155q0 8 6 14t14 6t14 -6t6 -14v-155q0 -8 -6 -14t-14 -6z" />
    <glyph glyph-name="add1" unicode="&#xe60b;" 
d="M512 -212q-139 0 -257 68.5t-186.5 186.5t-68.5 257t68.5 257t186.5 186.5t257 68.5t257 -68.5t186.5 -186.5t68.5 -257t-68.5 -257t-186.5 -186.5t-257 -68.5zM512 684q-159 0 -271.5 -112.5t-112.5 -271.5t112.5 -271.5t271.5 -112.5t271.5 112.5t112.5 271.5
t-112.5 271.5t-271.5 112.5zM704 236h-128v-128q0 -27 -18.5 -45.5t-45.5 -18.5t-45.5 18.5t-18.5 45.5v128h-128q-27 0 -45.5 18.5t-18.5 45.5q0 26 19 45t45 19h128v128q0 26 19 45t45 19q27 0 45.5 -18.5t18.5 -45.5v-128h128q27 0 45.5 -18.5t18.5 -45.5t-18.5 -45.5
t-45.5 -18.5z" />
    <glyph glyph-name="tianjia" unicode="&#xe649;" 
d="M960 268q0 98 -38 186.5t-102.5 153t-153 102.5t-186.5 38t-186.5 -38t-153 -102.5t-102.5 -153t-38 -186.5t38 -186.5t102.5 -153t153 -102.5t186.5 -38t186.5 38t153 102.5t102.5 153t38 186.5zM64 268q0 172 122 294t294 122t294 -122t122 -294t-122 -294t-294 -122
t-294 122t-122 294zM704 300h-192v192q0 13 -9.5 22.5t-22.5 9.5t-22.5 -9.5t-9.5 -22.5v-192h-192q-13 0 -22.5 -9.5t-9.5 -22.5t9.5 -22.5t22.5 -9.5h192v-192q0 -13 9.5 -22.5t22.5 -9.5t22.5 9.5t9.5 22.5v192h192q13 0 22.5 9.5t9.5 22.5t-9.5 22.5t-22.5 9.5z" />
    <glyph glyph-name="search2" unicode="&#xe62a;" 
d="M887 91l-110 109q-7 8 -18 8t-18 -8l-3 -3q-54 54 -56 55q69 85 69 195q0 129 -91.5 220t-220.5 91t-220 -91t-91 -220t91 -220t220 -91q110 0 195 68l55 -55l-3 -3q-8 -8 -8 -18.5t8 -18.5l109 -109q8 -8 18.5 -8t18.5 8l55 54q7 8 7 18.5t-7 18.5zM439.5 255
q-79.5 0 -135.5 56.5t-56 135.5t56 135t135.5 56t135.5 -56t56 -135t-56 -135.5t-135.5 -56.5z" />
    <glyph glyph-name="shiliangzhinengduixiang4" unicode="&#xe612;" 
d="M970 -94q0 -1 -1 -2.5l-3 -4.5t-4.5 -4t-6 1.5t-7.5 9.5q-2 5 -5.5 14.5t-16 37.5t-27.5 54.5t-40 61t-52 62t-65 53t-78.5 39t-92.5 13.5t-107 -17v-132q-1 -3 -1.5 -8t-5 -15.5t-12 -16t-22 -3.5t-33.5 16l-337 291l-7.5 5t-13 12.5t-10.5 19.5t6 25.5t29 30.5l341 293
q2 1 5.5 3.5t13 5.5t17.5 2t16 -9.5t12 -24.5v-143h1q110 -6 225 -55q240 -103 289 -334q26 -124 -7 -281z" />
    <glyph glyph-name="fanhui2" unicode="&#xe632;" 
d="M623 527h-175v142l-384 -192l384 -192v142h189q225 0 225 -188q0 -195 -232 -195h-442v-100h446q317 0 317 285q0 298 -328 298z" />
    <glyph glyph-name="pinglun" unicode="&#xe613;" 
d="M846 711h-671q-46 0 -79 -33t-33 -79v-448q0 -46 33 -79t79 -33h220l116 -141l115 141h220q47 0 79.5 33t32.5 79v448q0 46 -32.5 79t-79.5 33zM256.5 290q-35.5 0 -60.5 25t-25 60.5t25 60.5t60.5 25t60.5 -25t25 -60.5t-25 -60.5t-60.5 -25zM509.5 290
q-35.5 0 -60.5 25t-25 60.5t25 60.5t60.5 25t60.5 -25t25 -60.5t-25 -60.5t-60.5 -25zM761.5 290q-35.5 0 -60.5 25t-25 60.5t25 60.5t60.5 25t60.5 -25t25 -60.5t-25 -60.5t-60.5 -25z" />
    <glyph glyph-name="icon" unicode="&#xe603;" 
d="M177.5 150q-30.5 -26 -34.5 -66t22 -70.5t66 -34.5t70.5 22t34.5 66t-22 71t-66 34.5t-70.5 -22.5zM270 389q14 38 -3 74.5t-55 50t-74 -3.5t-50 -54.5t3 -74t54.5 -50t74 3t50.5 54.5zM544 664.5q-7 39.5 -40 63t-72.5 16.5t-62.5 -40t-16 -72.5t40 -62.5t72.5 -16
t62.5 39.5t16 72zM553.5 50q-39.5 -7 -62.5 -39.5t-16 -72t39.5 -63t72 -16.5t62.5 40t16.5 72.5t-39.5 62.5t-72.5 16zM873.5 271.5q-37.5 13.5 -74 -3t-50.5 -54.5t3 -74.5t54.5 -50t74 3.5t50.5 54.5t-3 74t-54.5 50zM841.5 453q30.5 26 34 66t-22 70.5t-65.5 34t-71 -22
t-34.5 -65.5t22.5 -71t66 -34.5t70.5 22.5zM511 631q-90 0 -166 -44.5t-120.5 -120.5t-44.5 -166t44.5 -166.5t120.5 -120.5t166 -44t166 44t120.5 120.5t44.5 166.5t-44.5 166t-120.5 120.5t-166 44.5zM511 88q-88 0 -150 62t-62 149.5t62 149.5t150 62t150 -62t62 -149.5
t-62 -149.5t-150 -62zM514 297zM367 296.5q0 60.5 43 104t104 43.5t104 -43.5t43 -104t-43 -103.5t-104 -43t-104 43t-43 103.5z" />
    <glyph glyph-name="tuichu" unicode="&#xe616;" horiz-adv-x="1025" 
d="M1015 327l-171 213q-13 16 -33 16q-8 0 -14 -2q-13 -5 -21 -16t-8 -25v-128h-341q-36 0 -61 -25t-25 -60t25 -60t61 -25h341v-128q0 -14 8 -25t21 -16q6 -2 14 -2q20 0 33 16l171 213q9 12 9 27t-9 27v0zM597 -41h-341h-0.5h-0.5q-35 0 -59.5 25t-24.5 60v512v0v0.5v0.5
q0 35 25 59.5t60 24.5h341q36 0 61 25t25 60.5t-25 60.5t-61 25h-426q-71 0 -121 -50t-50 -121v-682q0 -71 50 -121t121 -50h426q36 0 61 25t25 60.5t-25 60.5t-61 25v0zM597 -41z" />
    <glyph glyph-name="edit" unicode="&#xe635;" 
d="M842 -147h-667q-46 0 -78.5 32.5t-32.5 78.5v667q0 47 33 82t79 35h448v-56h-448q-23 0 -39.5 -18.5t-16.5 -42.5v-667q0 -23 16 -39.5t39 -16.5h667q24 0 42.5 17t18.5 39v448h56v-448q0 -45 -35 -78t-82 -33zM482 94q-11 -11 -29 -14l-243 -121q-20 -9 -33.5 5t-5.5 35
l120 243q3 18 14 29l433 433q16 16 39 16t39 -16l99 -98q16 -17 16 -40t-16 -39z" />
    <glyph glyph-name="noun154796cc" unicode="&#xe604;" 
d="M833 350q-7 12 -5 24q2 8 4 15q7 20 8 39t-12.5 32t-33.5 13h-148q-18 0 -31.5 14.5t-13.5 33.5q0 9 17 56.5t18 80.5q1 26 -7.5 44t-22 25t-27 10.5t-22.5 3.5h-10v0q-14 -7 -14 -17v-57q0 -44 -40 -101q-42 -59 -61 -78q-1 -2 -10.5 -9.5t-13 -9.5t-11.5 -7t-14.5 -6.5
t-13.5 -1.5v-330q41 -21 103 -21h230h10.5t20.5 3.5t25.5 10t17 21t3.5 35.5q-1 7 7.5 16t18.5 16.5t16 20t1 25.5q-5 15 -0.5 28t11.5 20t8.5 20.5t-8.5 30.5zM196 478v-371h144v371h-144zM267.5 139q-6.5 0 -11.5 4.5t-5 11.5t5 12t11.5 5t11.5 -5t5 -12t-5 -11.5
t-11.5 -4.5z" />
    <glyph glyph-name="fangdajing3" unicode="&#xe617;" 
d="M972 -51l-2 8l-1 3l-1 3l-1 1l-1 3l-1 2l-2 4l-1 2l-1 2l-1 1l-1 2h-1l-1 2l-1 1l-1 2l-1 1l-1 1l-1 2l-1 1l-1 1v2l-1 1l-1 1l-1 1l-1 1h-1l-1 1l-1 1l-1 1l-1 1l-1 1l-2 2l-1 1l-1 1l-1 1l-1 1l-1 1l-1 1l-1 1l-2 2l-1 1l-1 1h-1l-1 1l-2 1l-2 2l-1 1l-1 1l-1 1l-1 1
l-1 1l-1 1l-1 1l-1 1v1l-2 2l-1 1l-1 1h-1l-1 1l-1 1l-1 1l-1 1l-2 2l-1 1l-1 1l-1 1l-1 1l-2 1l-1 1l-1 1l-1 1l-1 1l-1 2l-1 1h-1l-1 1l-1 1l-1 1l-1 1l-1 1l-2 1l-1 1l-1 1l-1 1l-1 1l-1 1l-1 1v1l-1 1l-1 1l-1 1l-2 2h-2l-1 1l-1 1l-1 1l-1 1l-2 2l-1 1l-1 1l-1 1l-1 1
l-1 1l-1 1l-1 1l-1 1l-1 1l-2 2v0l-1 1l-1 1l-1 1l-1 1l-1 1l-1 1l-2 2l-1 1l-1 1l-2 1h-1l-1 1l-1 1l-1 1l-2 2l-1 1l-1 1l-1 1l-1 1l-1 1l-1 1l-1 1l-1 1l-1 1l-2 2l-1 1h-1l-1 1v1l-1 1l-1 1l-1 1l-2 2l-1 1l-1 1l-1 1l-1 1l-1 1l-1 1l-1 1l-1 1l-1 1h-1l-1 1l-1 1l-1 1
l-1 1l-1 1l-1 1l-2 1l-1 1l-1 1l-1 1l-1 1l-1 1l-1 1l-1 1l-1 1l-1 1v1l-2 1h-1l-1 1l-1 1l-1 1l-1 1l-1 1l-1 1l-1 1l-2 2l-1 1l-1 1l-1 1l-1 1l-1 1l-1 1l-1 1l-2 2h-1l-1 1l-1 1l-1 1l-1 1l-1 1l-1 1l-1 1l-1 1l-1 1l-1 1l-1 1l-1 1h-1l-1 1l-1 1l-1 1l-1 1l-1 1l-1 1
l-1 1v2l1 2l1 1l1 1l1 2l1 1l1 1l1 1l1 1l1 2l1 1l1 2l1 1l1 2l1 1l1 2l1 1l1 3l1 1l2 4l1 1l1 2l1 2l1 1l1 2l1 1l1 2l2 3l1 1l5 10l1 2l1 1l1 2l1 2l2 4l1 3l3 5l1 3l1 2l1 3l1 2l1 3l1 2l1 2v3l1 2l1 3l2 6l1 2l1 4l2 6l1 4l1 2l1 4l1 4l1 4l2 9l1 6l1 7l2 14l1 7l1 11
l1 16v24l-1 18l-1 10l-1 8l-1 6l-1 6l-1 9l-1 5l-1 5l-1 4l-1 4l-1 4l-1 4l-1 3l-1 4l-1 2l-1 3l-1 4l-2 6l-1 2l-1 3l-1 2l-1 3l-1 3l-1 2v2l-1 2l-1 2l-1 3l-2 4l-1 3l-4 7l-1 2l-1 2l-1 2l-1 3l-1 1l-6 11l-1 2l-1 1l-2 4l-1 1l-1 1l-2 4l-1 1l-2 4l-1 1l-1 2v1l-1 2
l-1 1l-1 1l-1 1l-1 2l-1 1l-1 2l-1 1l-1 2l-1 1l-1 1l-1 2l-1 1l-1 1l-1 1h-1l-1 2l-2 2l-1 2l-1 1l-1 1l-1 2l-1 1l-1 1l-1 1l-2 3l-1 1l-1 1l-1 1l-1 2l-2 2l-1 1l-1 1l-1 1l-1 1v2l-1 1l-1 1l-1 1h-1l-1 1l-1 1l-1 1l-1 1l-1 1l-1 1l-1 1l-1 1l-1 1l-1 1l-1 1l-1 1l-1 1
l-1 1l-1 1l-2 2h-1l-1 1l-1 1l-1 1v1l-1 1l-1 1l-1 1l-1 1l-2 1l-1 1l-1 1l-1 1l-1 1l-1 1l-1 1l-2 1h-1l-2 2l-1 1l-2 1l-1 1l-1 1l-1 1l-2 1l-1 1l-1 1l-2 1l-1 1l-1 1l-1 1l-2 1l-1 1l-2 1h-1l-1 1l-2 1l-1 1h-2v2l-2 1l-1 1l-2 1l-1 1l-1 1l-2 1l-1 1l-2 1l-2 1l-1 1h-2
l-1 1l-1 1l-2 1l-1 1l-4 2l-1 1l-2 1l-2 1l-2 1l-1 1l-2 1l-2 1l-2 1l-2 1l-1 1l-2 1h-2l-2 1l-1 1l-2 1l-2 1l-3 1l-2 1l-4 2l-2 1l-2 1l-3 1l-2 1l-2 1l-3 1l-2 1l-2 1h-2l-2 1l-3 1l-2 1l-3 1l-3 1l-2 1l-3 1l-6 2l-3 1l-3 1l-3 1l-3 1l-4 1l-4 1l-3 1l-8 1l-5 1l-3 1
l-5 1l-5 1l-5 1l-6 1l-6 1l-6 1l-8 1l-11 1h-76l-11 -1l-8 -1l-7 -1l-5 -1l-6 -1l-5 -1l-5 -1l-5 -1l-4 -1l-4 -1l-4 -1h-3l-4 -1l-4 -1l-3 -1l-4 -1l-3 -1l-3 -1l-4 -1l-5 -2l-2 -1l-3 -1l-3 -1l-3 -1l-2 -1l-3 -1l-2 -1h-3l-2 -1l-2 -1l-2 -1l-2 -1l-2 -1l-2 -1l-3 -1
l-2 -1l-2 -1l-2 -1l-2 -1l-2 -1l-3 -1l-2 -1l-1 -1l-2 -1h-2l-2 -1l-1 -1l-2 -1l-2 -1l-2 -1l-2 -1l-1 -1l-2 -1l-2 -1l-2 -1l-1 -1l-2 -1l-2 -1l-1 -1l-2 -1l-2 -1l-1 -1l-2 -1h-1l-2 -1v-1l-2 -1l-1 -1l-2 -1l-1 -1l-2 -1l-1 -1l-2 -1l-1 -1l-1 -1l-2 -1l-1 -1l-1 -1
l-1 -1l-2 -1h-1l-1 -1l-2 -1l-2 -1l-1 -1l-2 -1l-1 -1l-1 -1l-1 -1l-1 -1l-1 -1l-1 -1l-1 -1l-2 -1l-1 -1l-1 -1h-1l-1 -1l-2 -1l-1 -1l-1 -1l-1 -1l-1 -1l-1 -1l-1 -1l-2 -1l-1 -1l-1 -1l-1 -1l-1 -1l-1 -1l-1 -1l-1 -1l-1 -1h-1l-1 -1l-1 -1v-1l-1 -1l-1 -1l-1 -1l-1 -1
l-1 -1l-1 -1l-1 -1l-1 -1l-1 -1l-1 -1l-1 -1l-1 -1l-1 -1h-1l-2 -2l-1 -2l-1 -1l-1 -1l-1 -1l-1 -1l-1 -1l-1 -1l-1 -2l-1 -1l-1 -1l-1 -1l-1 -1l-1 -1l-1 -1l-1 -1l-1 -1l-1 -2v-1l-1 -2l-1 -1l-1 -2l-1 -1l-1 -1l-1 -2l-1 -1h-1l-1 -1l-1 -2l-1 -1l-1 -1l-1 -2l-1 -1
l-1 -1l-1 -2l-1 -1l-1 -2l-1 -1l-1 -1l-1 -1l-1 -2l-1 -1l-1 -2l-1 -2l-1 -1l-1 -2l-1 -2l-1 -1l-1 -2l-1 -1v-1l-1 -2l-2 -4l-1 -1l-3 -6l-1 -2l-2 -3l-1 -2l-2 -4l-1 -2l-2 -4l-1 -2l-1 -2l-1 -2l-1 -2l-1 -2l-1 -3l-1 -2l-1 -3l-2 -3l-1 -3l-1 -2l-1 -3l-1 -3l-1 -2v-3
l-1 -3l-1 -3l-1 -3l-1 -3l-1 -3l-1 -3l-1 -4l-2 -8l-1 -3l-1 -4l-2 -10l-1 -5l-1 -6l-1 -5l-1 -8l-1 -9v-71l1 -10l1 -6l1 -7l1 -5l1 -5l1 -5l1 -5l1 -3l1 -5l1 -4l1 -3l1 -3l1 -3l1 -4l1 -3l1 -3l1 -2l1 -3v-3l1 -3l1 -3l1 -3l1 -1l1 -3l1 -3l1 -2l1 -3l1 -2l1 -2l1 -2
l1 -2l1 -2l1 -2l1 -3l2 -4l1 -2l2 -3l1 -2l2 -4l1 -2l1 -2l1 -1l1 -2l1 -1l1 -2l1 -1l1 -2l1 -1l1 -2v-2l1 -1l1 -2l1 -2l1 -1l1 -1l1 -1l2 -4l1 -1l1 -2l1 -1l1 -2l1 -1l1 -2l1 -1l1 -1l1 -1l1 -1l1 -2l1 -1l1 -1l1 -2l1 -1l1 -1l1 -2l1 -1l1 -1l1 -2l1 -1l1 -1l1 -1v-1
l1 -2l1 -1l1 -1l1 -1l1 -2l1 -1l1 -1l1 -1l1 -1l1 -2l1 -1h1l1 -1l1 -1l1 -1l1 -1l1 -1l1 -1l1 -2l1 -1l1 -1l1 -1l1 -1l1 -1l1 -1l1 -1l1 -1l1 -1l1 -1h1l2 -1l1 -1l1 -1l1 -1v-1l1 -1l1 -1l1 -1l1 -1l1 -1l1 -1l2 -1l1 -1l1 -1l1 -1l1 -1l1 -1l1 -1h1l2 -1l1 -1l1 -1l1 -1
l1 -1l2 -1l1 -1l1 -1l1 -1l2 -1l1 -1l1 -1l1 -1l2 -1l1 -1l1 -1l1 -1l1 -1h1l2 -1l1 -1l1 -1l1 -1l1 -1l2 -1l1 -1l2 -1l1 -1l2 -1l1 -1l1 -1l2 -1l1 -1l2 -1l2 -1l1 -1l2 -1h1l2 -1l1 -1l1 -1l2 -1l1 -1l2 -1l2 -1l2 -1l1 -1l2 -1l2 -1l2 -1l2 -1l1 -1l2 -1l4 -2l2 -1l2 -1
h2l1 -1l2 -1l2 -1l2 -1l2 -1l3 -1l2 -1l2 -1l3 -1l4 -1l2 -1l2 -1l2 -1l3 -1l1 -1l3 -1l3 -1l2 -1h3l3 -1l3 -1l3 -1l6 -2l3 -1l2 -1l4 -1l3 -1l4 -1l4 -1l4 -1l4 -1l4 -1l4 -1l4 -1l5 -1l5 -1h6l6 -1l6 -1l8 -1l10 -1l12 -1h54l12 1l10 1l8 1l7 1l5 1h5l5 1l5 1l5 1l5 1
l4 1l3 1l4 1l4 1l3 1l4 1l3 1l4 1l3 1l3 1l3 1l2 1l3 1l3 1l3 1h2l3 1h1l1 -1h1l1 -1l1 -1l1 -1l1 -1l1 -1l1 -2l1 -1l1 -1l1 -1l1 -1l1 -1l1 -1l1 -1l1 -1l2 -2v-1h1l1 -1l1 -1l1 -1l1 -1l1 -1l2 -2l1 -1l1 -1l1 -1l1 -1l1 -1l1 -1l1 -1l1 -1l1 -1l1 -1l2 -1h1l1 -1l1 -1
l1 -1l1 -1l1 -1l1 -1l1 -1l1 -1l1 -1l1 -1v0l1 -1l1 -1l2 -2l1 -1l1 -1l1 -1l1 -1l1 -1l1 -1h1l2 -1l1 -1l2 -2l1 -1l1 -1l1 -1l1 -1l1 -1l1 -1v-1l2 -2l1 -1l2 -1l1 -1l1 -1l1 -1h1l1 -1l1 -1l1 -1l2 -2l1 -1l1 -1l1 -1l1 -1l1 -1l1 -1l1 -1l1 -1l1 -1l1 -1l1 -1l1 -1l1 -1
h1l1 -1l1 -1l2 -2l1 -1l1 -1l1 -1l1 -1l1 -1v-1l1 -1l1 -1l2 -1l1 -1l1 -1l1 -1l1 -1h1l1 -1l1 -1l1 -1l1 -1l1 -1l1 -1l1 -1l1 -1l1 -1l1 -1l1 -1l1 -1l1 -1l2 -2l1 -1l1 -1l1 -1l2 -1h1l1 -1l1 -1l1 -1l1 -1l1 -1l1 -1l1 -1l1 -1v-1l1 -1l1 -1l1 -1l1 -1l2 -2l1 -1l1 -1h1
l1 -1l2 -1l1 -1l1 -1l2 -2l2 -1l1 -1l1 -1l1 -2l1 -1l1 -1l1 -1l1 -1l1 -1l1 -1l1 -1h1l1 -1l1 -1l1 -1l1 -1l1 -1l1 -1l1 -1l1 -1v-1l2 -1l1 -1l1 -1l1 -1l1 -1l1 -1l1 -1l1 -1l1 -1h1l1 -1l1 -1l1 -1l1 -1l2 -2l1 -1l1 -1l1 -1l1 -1l1 -1l1 -1l1 -1l1 -1l2 -1l1 -1l1 -1
l1 -1h1l1 -1l1 -1l1 -1l1 -1l1 -1l1 -2l1 -1l2 -1l1 -1l1 -1l2 -1l1 -1l2 -1l1 -1l2 -1l1 -1l2 -1h1l2 -1l2 -1l2 -1l2 -1l4 -2l2 -1l2 -1l3 -1l3 -1l3 -1l4 -1l4 -1h4h41l5 1l4 1l3 1l3 1l3 1l3 1l3 1l2 1l4 2l3 1h1l2 1l2 1l1 1l1 1l2 1l1 1l2 1l1 1l2 1l1 1l1 1l2 1l1 1
l1 1l2 2l2 1l1 1h1l1 1l1 1l1 1l1 1l1 1l1 2l1 1l1 1l1 1l1 1l1 2l1 1v1l1 2l1 1l1 1l1 1l1 2l1 1l1 2l4 8l1 1l1 3l1 2l1 3l1 3l1 4l1 3l1 5v37zM705 383l-1 -9l-1 -7l-2 -11l-1 -5l-1 -4l-1 -5l-1 -3v-3l-1 -4l-1 -3l-1 -4l-1 -2l-1 -3l-1 -3l-1 -2l-1 -3l-1 -3l-1 -1
l-1 -3l-1 -2l-1 -3l-1 -2l-4 -7l-1 -2l-3 -6l-1 -2l-1 -1l-1 -2l-1 -2l-2 -3l-1 -1l-2 -4v-1l-1 -2l-1 -1l-1 -2l-1 -2l-1 -1l-1 -1l-1 -1l-1 -1l-1 -2l-1 -1l-3 -6l-1 -1l-1 -1l-1 -2l-1 -1h-1l-1 -1l-1 -2l-1 -1l-2 -2l-1 -2l-1 -1l-1 -1l-1 -1l-1 -1l-1 -1l-1 -1l-1 -2
l-1 -1h-1l-1 -1l-1 -1l-1 -1l-1 -1l-1 -1v-1l-2 -1l-1 -1l-1 -1l-1 -1l-1 -1l-1 -1l-1 -1l-1 -1l-1 -1l-2 -1l-1 -1l-1 -1l-2 -1l-1 -1l-1 -1l-1 -1l-1 -1l-1 -1l-2 -1l-2 -2v-1l-2 -1l-1 -1l-1 -1h-1l-2 -1l-1 -1l-1 -1l-2 -1l-1 -1l-1 -1l-2 -1l-1 -1l-2 -1l-1 -1l-2 -1
l-2 -2l-2 -1l-2 -1l-1 -1l-1 -1l-2 -1l-1 -1h-1l-4 -2l-1 -1l-2 -1l-2 -1l-2 -1l-2 -1l-1 -1l-2 -1l-2 -1l-2 -1l-2 -1l-2 -1l-3 -1l-2 -1l-1 -1l-2 -1h-2l-3 -1l-2 -1l-3 -1l-2 -1l-3 -1l-2 -1l-3 -1l-3 -1l-3 -1l-2 -1l-3 -1l-3 -1l-4 -1l-3 -1l-3 -1l-4 -1l-4 -1l-7 -1
l-6 -1h-5l-7 -1l-8 -1l-8 -1l-17 -1h-20l-17 1l-8 1l-8 1l-6 1h-6l-6 1l-7 1l-4 1l-4 1l-3 1l-4 1l-6 2l-3 1l-3 1l-2 1l-3 1l-2 1l-3 1l-3 1l-2 1l-3 1l-2 1h-2l-3 1l-2 1l-2 1l-2 1l-1 1l-2 1l-3 1l-1 1l-2 1l-2 1l-2 1l-2 1l-2 1l-2 1l-2 1l-1 1l-4 2l-1 1l-2 1h-2l-1 1
l-2 1l-1 1l-1 1l-1 1l-1 1l-2 1l-1 1l-2 1l-1 1l-1 1l-2 1l-1 1l-2 1l-1 1l-1 1l-1 1l-2 1l-1 1h-1l-2 1l-1 1l-2 2l-1 1l-2 1l-1 1l-1 1l-1 1v1l-1 1l-1 1l-2 1l-1 1l-1 1h-1l-1 1l-1 1l-1 1l-1 1l-1 1l-1 1l-2 2l-1 1l-2 1l-1 1l-1 1l-1 1l-1 1l-1 1l-1 1l-1 1l-1 1l-1 1
l-1 1l-1 1l-1 1l-1 2l-1 1l-1 2l-1 2l-1 1l-1 1l-1 1l-1 1l-1 1l-1 1l-1 2l-1 1l-1 1l-1 2l-1 1l-1 2l-1 1l-1 2l-1 2l-1 1l-2 3l-1 1l-2 4l-1 1l-1 2l-1 2l-1 1l-2 3l-1 2l-1 2v2l-1 2l-1 1l-1 3l-1 1l-1 2l-2 4l-1 2l-1 2l-1 2l-1 3l-1 1l-1 3l-1 2l-2 6l-1 3l-2 5l-1 3
l-1 4l-1 3l-1 4l-1 3l-1 4l-1 5l-1 5l-1 5l-1 6l-1 7l-1 11v35l1 10l1 8l1 6l1 6l1 4l1 5l1 4l1 3l1 4l1 3l1 3l1 3l1 4l1 2l1 2l1 3l1 3l1 3l1 2l1 2l1 3l1 1l1 3l1 2l2 4l1 2l1 2l2 3l1 2l1 4l1 2l1 2l1 1l1 2l2 3l1 1l2 4l1 1l1 2l1 1l1 2l1 2l1 1l1 2h1l1 1l1 2l1 1l1 2
l1 1l1 1l1 2l1 1l1 1l1 1l1 2l1 1l2 1l1 2l1 1l1 1v1l1 1l1 1l1 1l1 2l1 1l1 1l1 1l1 1l1 1l1 1l1 1h1l1 1l1 1l1 1l1 1l1 1l1 1l1 1l1 1l1 1l1 1l1 1l1 1l1 1l2 1l1 1l1 1l1 1l1 1l1 1h2l1 1v1l1 1l1 1l2 1l1 1l1 1l1 1l2 1l1 1l1 1l2 1l1 1l2 1l1 1l2 1l1 1l2 1h1l2 1l1 1
l2 1l1 1l2 1l2 1l1 1l1 1l2 1l1 1l2 1l2 1l2 1l1 1l2 1l2 1l2 1l2 1h2l2 1l2 1l2 1l2 1l3 1l1 1l2 1l2 1l3 1l2 1l3 1h2l3 1l3 1l1 1l3 1l3 1l4 1l6 2l3 1l4 1l4 1l4 1l3 1l5 1l5 1l5 1l7 1l7 1h8l14 1h28l13 -1h9l7 -1l7 -1l5 -1l4 -1l5 -1l5 -1l4 -1l4 -1l3 -1l3 -1l3 -1
l4 -1l2 -1l3 -1l3 -1l2 -1l3 -1l3 -1l2 -1h3l2 -1l3 -1l2 -1l2 -1l2 -1l2 -1l2 -1l2 -1l2 -1l2 -1l2 -1l2 -1l2 -1l2 -1l2 -1l2 -1l1 -1h2l2 -1l2 -1v-1l2 -1l2 -1l1 -1l2 -1l1 -1l2 -1l1 -1l2 -1l1 -1l2 -1l1 -1l2 -1l1 -1l2 -1l1 -1h2l1 -1l1 -1l2 -1l1 -1l1 -1l2 -1v-1
l1 -1l1 -1l1 -1l2 -1l2 -2l1 -1l1 -1l1 -1l2 -1l1 -1l1 -1h1l2 -2l1 -1l1 -1l1 -1l1 -1l1 -1l1 -1l1 -1l2 -2l1 -1l1 -1l1 -1l1 -1l1 -1l1 -1h1l1 -1l1 -1l1 -1v-2l1 -1l1 -1l1 -1l1 -1l1 -1l1 -2l1 -1l1 -1l1 -1l1 -2h1l1 -1l1 -2l1 -1l1 -1l1 -2l1 -1l1 -2l1 -1l1 -2l1 -1
l1 -2l1 -1l1 -1l1 -1l1 -2l1 -1l1 -2l1 -1l2 -4l1 -1l1 -2l1 -1l1 -2l2 -4l1 -1l4 -10l1 -2l2 -4l1 -2l1 -3l1 -2l1 -3l1 -1l1 -3l1 -2l2 -6l1 -3l2 -5l1 -4l1 -3l1 -4l1 -3l1 -4l1 -4l1 -5l1 -5l1 -6l1 -8l1 -9v-40h-1zM905 -78l-1 -6l-1 -2l-1 -3l-3 -6l-1 -1l-1 -2l-1 -1
l-1 -2l-1 -1h-1l-1 -1l-2 -1l-2 -1l-2 -1h-10l-2 1l-2 1l-1 1l-1 1h-1l-1 1l-1 1l-1 2l-1 3v5l1 3l1 1l1 2l1 1l1 1l1 1l2 4v6l-1 2l-1 1l-1 1l-1 1l-1 1l-1 1l-1 1l-1 1l-1 1l-2 2l-1 1l-1 1l-1 1l-1 1l-1 1l-1 1l-1 1v0l-1 1l-1 1l-1 1l-1 1l-1 1l-1 1l-1 1l-2 1l-2 2
l-1 1l-1 1l-1 1l-1 1l-1 1l-1 1l-1 1l-2 1l-1 1l-1 1l-1 1l-1 1l-1 1l-1 1l-1 1l-2 2l-2 1l-1 1l-1 1l-1 1l-1 1v1l-1 1h-2l-1 1l-1 1l-1 2l-1 1l-1 1l-1 1l-1 1l-1 1l-1 1l-1 1l-1 1l-1 1l-1 1l-1 1l-1 1l-1 1l-1 1h-1l-2 1l-1 1l-2 2l-1 1l-1 1l-1 1l-1 1l-1 1l-1 1l-1 1
l-2 2l-1 1l-1 1v1l-1 1l-1 1l-2 1l-1 1l-1 1l-1 1l-2 1l-1 1l-1 1l-1 1l-1 1l-1 1l-2 2l-1 1l-1 1l-1 1l-1 1l-1 1l-1 1h-1l-1 1l-1 1l-1 1l-1 1l-1 1l-1 1l-1 1l-1 1l-1 1l-2 1l-1 1l-1 1l-1 1v0l-1 1l-1 1l-1 1l-1 1l-1 2l-1 1l-1 2v8l1 3l1 1l1 2l1 1l2 1l1 1l2 1l3 1h9
l1 -1l2 -1l2 -1l2 -2l1 -1l1 -1l1 -1l1 -1l1 -1l1 -1l1 -1l1 -1l1 -1l2 -1h1l1 -1l1 -1l1 -1l1 -1l1 -1l1 -1l1 -1l1 -1l2 -1l1 -1l1 -1l1 -1l1 -1l1 -1l1 -1l1 -1l1 -1v-1h1l1 -1l1 -1l1 -1l1 -1l1 -1l1 -1l2 -2l1 -1l1 -1l1 -1l1 -1l1 -1l2 -1l1 -2l1 -1l1 -1h1l1 -1l1 -1
l1 -1l1 -1l1 -1l1 -1l1 -1l2 -2l1 -1l1 -1l1 -1l1 -1l1 -1l2 -1l1 -1v-1l1 -1h1l1 -1l1 -1l1 -1l1 -1l2 -2l1 -1l1 -1l1 -1l1 -1l1 -1l1 -1l1 -1l1 -1l1 -1l2 -2l1 -1h1l2 -1l1 -1l1 -1l1 -1l1 -1l2 -2l1 -1l1 -1l2 -1l1 -1l1 -1l1 -1v-1l1 -1l1 -1l2 -1l1 -1l1 -1l1 -1
l1 -1l1 -1l1 -1l1 -1l1 -1l1 -1l1 -1l2 -1l1 -1l1 -1l1 -1l1 -1l1 -1l1 -1l1 -1l1 -1l1 -1l1 -1l1 -1l1 -2l1 -1l4 -8l1 -2l1 -3l1 -5v-8h-1zM571 567l-1 1l-1 1l-2 2h-1l-2 1l-1 1l-1 1l-2 1l-1 1l-1 1l-2 1l-1 1l-2 1l-1 1l-2 1l-1 1l-2 1l-1 1l-2 1l-1 1l-2 1l-2 1v0
l-2 1l-2 1l-2 1l-2 1l-1 1l-2 1l-2 1l-2 1l-2 1l-2 1l-3 1l-2 1l-2 1l-2 1l-2 1l-2 1l-6 2h-2l-3 1l-3 1l-3 1l-3 1l-4 1l-3 1l-7 2l-5 1l-5 1l-6 1l-7 1l-17 1h-30l-18 -1l-6 -1l-6 -1l-5 -1l-5 -1l-4 -1l-4 -1l-2 -1l-4 -1l-3 -1l-3 -1l-3 -1l-2 -1h-3l-3 -1l-2 -1l-3 -1
l-2 -1l-2 -1l-2 -1l-2 -1l-2 -1l-2 -1l-2 -1l-2 -1l-2 -1l-2 -1l-1 -1l-1 -1l-1 -1l-1 -1l-2 -3l-1 -4v-7l1 -4l1 -1l1 -1l1 -2l1 -1l1 -1l2 -1l1 -1l2 -1l3 -1h11l2 1l2 1l2 1l2 1l2 1l2 1l2 1l3 1l2 1l3 1l3 1h2l3 1l2 1l3 1l4 1l4 1l4 1l4 1l5 1l6 1l5 1l9 1h34l9 -1
l6 -1l5 -1l5 -1l5 -1l4 -1l3 -1l4 -1l3 -1l2 -1l3 -1h3l2 -1l3 -1l2 -1l3 -1l2 -1l2 -1l2 -1l2 -1l2 -1l2 -1l2 -1l1 -1l1 -1l2 -1l2 -1l2 -1l1 -1l2 -1l2 -1h1l2 -1l1 -1l2 -1l1 -1l2 -1l1 -1l1 -1l2 -1l1 -1l1 -1l2 -1l2 -2l1 -1l2 -1l3 -1h11l3 1l2 1l1 1l2 1l1 1l1 1
l1 1l2 4l1 3v9l-1 2z" />
    <glyph glyph-name="fanhui3" unicode="&#xe606;" 
d="M290 370l-55 -54q-7 -7 -7 -17.5t7 -17.5l454 -461q7 -7 17 -7t17 7l66 67q8 7 8 17t-7 17l-372 378l371 386q7 7 7 17t-7 17l-66 65q-7 8 -17 8t-17 -7z" />
    <glyph glyph-name="guanbi" unicode="&#xe614;" 
d="M833 621q-65 65 -150 99t-171 34t-171 -34t-150 -99t-99 -150t-34 -171t34 -171t99 -150t150 -99t171 -34t171 34t150 99t99 150t34 171t-34 171t-99 150zM793 19q-57 -57 -131.5 -86.5t-149.5 -29.5t-149.5 29.5t-131.5 86.5q-76 76 -103 178.5t0 205t103 178.5
q57 57 131.5 86.5t149.5 29.5t149.5 -29.5t131.5 -86.5t86.5 -131.5t29.5 -149.5t-29.5 -149.5t-86.5 -131.5zM700 454l-34 34l-155 -154l-154 154l-33 -34l154 -154l-154 -154l33 -34l154 154l155 -154l34 34l-155 154z" />
    <glyph glyph-name="iconfontzhishiku1" unicode="&#xe618;" horiz-adv-x="1232" 
d="M1165 677v-825q0 -15 -9.5 -25t-25.5 -10h-147q-15 0 -25 10t-10 25v825q0 15 5.5 20.5t20.5 5.5h165q15 0 20.5 -5.5t5.5 -20.5zM1130 -148v825h-147v-825h147zM1130 677v-825h-147v825h147zM1100 529.5q0 17.5 -26 17.5h-35q-26 0 -26 -17.5t26 -17.5h35q26 0 26 17.5z
M1100 442.5q0 17.5 -26 17.5h-35q-26 0 -26 -17.5t26 -17.5h35q26 0 26 17.5zM1100 355.5q0 17.5 -26 17.5h-35q-26 0 -26 -17.5t26 -17.5h35q26 0 26 17.5zM1100 273q0 17 -26 17h-35q-26 0 -26 -17t26 -17h35q26 0 26 17zM939 677v-825q0 -15 -9.5 -25t-24.5 -10h-148
q-15 0 -25 10t-10 25v825q0 15 5.5 20.5t20.5 5.5h165q15 0 20.5 -5.5t5.5 -20.5zM905 -148v825h-148v-825h148zM905 677v-825h-148v825h148zM874 529.5q0 17.5 -26 17.5h-35q-26 0 -26 -17.5t26 -17.5h35q26 0 26 17.5zM874 442.5q0 17.5 -26 17.5h-35q-26 0 -26 -17.5
t26 -17.5h35q26 0 26 17.5zM874 355.5q0 17.5 -26 17.5h-35q-26 0 -26 -17.5t26 -17.5h35q26 0 26 17.5zM874 273q0 17 -26 17h-35q-26 0 -26 -17t26 -17h35q26 0 26 17zM709 677v-825q0 -15 -9.5 -25t-25.5 -10h-147q-15 0 -25 10t-10 25v711l21 76q4 14 0 21t-18 11h-3v6
q0 15 5.5 20.5t20.5 5.5h165q15 0 20.5 -5.5t5.5 -20.5zM674 -148v825h-147v-825h147zM674 677v-825h-147v825h147zM644 529.5q0 17.5 -26 17.5h-35q-26 0 -26 -17.5t26 -17.5h35q26 0 26 17.5zM644 442.5q0 17.5 -26 17.5h-35q-26 0 -26 -17.5t26 -17.5h35q26 0 26 17.5z
M644 355.5q0 17.5 -26 17.5h-35q-26 0 -26 -17.5t26 -17.5h35q26 0 26 17.5zM644 273q0 17 -26 17h-35q-26 0 -26 -17t26 -17h35q26 0 26 17zM495 671q14 -4 18 -11t0 -21l-21 -76v108h3zM492 671v-108l-197 -720q-5 -15 -16.5 -22t-26.5 -3l-143 40q-14 4 -21 16t-3 26
l218 796q4 14 11 18t21 0zM261 -148l218 796l-142 39l-218 -796zM479 648l-218 -796l-142 39l218 796zM410.5 513.5q4.5 16.5 -20.5 23.5l-33 9q-25 7 -29.5 -9.5t20.5 -23.5l33 -10q25 -6 29.5 10.5zM388 429.5q5 16.5 -21 23.5l-33 9q-25 7 -29.5 -9.5t20.5 -23.5l33 -9
q25 -7 30 9.5zM365 346q5 17 -21 23l-33 10q-25 7 -29.5 -10t20.5 -24l33 -9q25 -7 30 10zM343.5 266.5q4.5 16.5 -20.5 23.5l-34 9q-25 7 -29.5 -10t20.5 -23l33 -10q26 -6 30.5 10.5z" />
    <glyph glyph-name="icon2" unicode="&#xe611;" 
d="M310 334l124 -240q4 10 12 28t35 71.5t57 105.5t77.5 120.5t96.5 125t113 111.5t129 88q-2 -25 -8.5 -82.5t-8 -88t5.5 -78.5t26 -92q-49 -11 -126 -74.5t-151.5 -148t-140.5 -173.5t-102 -153q-97 120 -205 207.5t-191 117.5l257 155v0z" />
    <glyph glyph-name="add2" unicode="&#xe667;" 
d="M852.5 633.5q-92.5 92.5 -216 125t-247.5 -0.5t-216 -125t-125 -216t0 -247.5t125.5 -216t216.5 -125t247.5 0t215.5 125t125 216.5t0 247.5t-125.5 216zM747 246h-197v-197q0 -16 -10.5 -27t-26 -11t-26.5 11t-11 26v198h-197q-15 0 -26 10.5t-11 26t11 26.5t26 11h197
v197q0 15 11 26t26.5 11t26 -11t10.5 -26v-197h197q16 0 26.5 -10.5t10.5 -26t-10.5 -26.5t-26.5 -11z" />
    <glyph glyph-name="iconyoujiantou01" unicode="&#xe646;" 
d="M285 610v-89h87v89h-87v0zM197 699v-89h88v89h-88v0zM372 521v-90h88v90h-88v0zM285 164h87v89h-87v-89v0zM372 253h88v89h-88v-89v0zM197 69h88v95h-88v-95v0zM547 431h-87v-89h87v89v0zM652 521v-90h87v90h-87v0zM564 610v-89h88v89h-88v0zM739 431v-89h88v89h-88v0z
M652 253h87v89h-87v-89v0zM564 164h88v89h-88v-89v0zM477 699v-89h87v89h-87v0zM477 69h87v95h-87v-95v0zM477 69z" />
    <glyph glyph-name="4" unicode="&#xe60f;" 
d="M846 334q-33 1 -60 19.5t-40 49.5q-12 32 -5 64.5t31 54.5q-24 32 -55 57q-23 -20 -53.5 -25t-60.5 7q-29 13 -46.5 38.5t-19.5 56.5q-48 6 -96 -1q-4 -29 -22 -52.5t-46 -34.5q-54 -21 -103 12q-29 -24 -53 -53q18 -23 22.5 -52.5t-7.5 -58.5q-12 -28 -36.5 -45.5
t-54.5 -20.5q-6 -43 -1 -87q29 -4 51.5 -22t33.5 -45q11 -28 7 -56t-22 -51q27 -35 61 -62q23 17 51.5 20.5t56.5 -8.5q28 -11 45 -34.5t21 -52.5q49 -6 97 1q15 52 65 73q50 19 96 -8q37 28 66 64q-18 23 -21.5 52t7.5 57q12 28 36 45.5t53 20.5q5 39 2 77zM620.5 248.5
q-22.5 -52.5 -76 -74t-106.5 1t-74.5 76t1.5 106.5t76.5 74.5t106 -1.5t74 -76.5t-1 -106z" />
    <glyph glyph-name="fangdajing" unicode="&#xe65d;" 
d="M751 421q0 -5 0.5 -16.5t0.5 -16.5q-2 -51 -23 -103q-10 -24 -28 -50q-4 -6 0 -10q9 -9 19 -19.5t22 -22.5l19 -19l33.5 -33.5l31.5 -31.5q8 -9 24 -25.5t23 -22.5q9 -10 9.5 -22t-8.5 -21q-11 -12 -23 -23q-10 -9 -21.5 -8.5t-21.5 9.5q-33 32 -166 164q-1 2 -4.5 5
t-5.5 4q-2 3 -8 -1q-36 -25 -82 -39q-27 -8 -60 -12q-68 -6 -137 21q-40 16 -75 46q-53 43 -82 105q-18 39 -24 86q-3 23 -3 39q3 106 65 182q70 86 176 106q29 5 54 5q67 0 121 -25q48 -22 84 -56q68 -66 86 -158q0 -3 1 -9t2 -9q2 -8 1 -19zM682 401q0 93 -65 159t-158 66
q-95 1 -160.5 -64.5t-65.5 -158.5q-1 -94 64 -159t157 -67q95 -1 161.5 65t66.5 159z" />
    <glyph glyph-name="add3" unicode="&#xe651;" 
d="M542 577zM541 585h-60v-240h-239v-60h239v-239h60v239h239v60h-239v240zM511 -121q-89 0 -170 34q-78 33 -138.5 93.5t-93.5 139.5q-34 81 -34 169.5t34 169.5q33 79 93.5 139t138.5 94q81 34 170 34t170 -34q78 -34 138.5 -94t93.5 -139q34 -81 34 -169.5t-34 -169.5
q-33 -79 -93.5 -139.5t-138.5 -93.5q-81 -34 -170 -34zM511 708q-106 0 -196.5 -53t-143 -143t-52.5 -196.5t52.5 -197t143 -143t196.5 -52.5t196.5 52.5t143 143t52.5 197t-52.5 196.5t-143 143t-196.5 53z" />
    <glyph glyph-name="tianjiaren" unicode="&#xe63f;" 
d="M886 -91v101h77q17 -20 25 -42v-59h-102v0zM949 63h-130v-131q0 -10 -7 -17t-17 -7t-17.5 7t-7.5 17v131h-130q-10 0 -17.5 7t-7.5 17.5t7.5 17.5t17.5 7h130v130q0 10 7 17t17.5 7t17.5 -7t7 -17v-130h130q10 0 17 -7.5t7 -17.5t-7 -17t-17 -7v0zM762 400l-6 4
q-37 -111 -113 -168h3q-2 -3 -6 -8q-106 -105 -94 -150q0 -3 1.5 -7.5t7.5 -16t14.5 -20.5t25 -16.5t36.5 -7.5h85v-101h-204h-476v59q36 103 250 149q52 11 92 15q18 8 24.5 22t3 27.5t-9.5 26t-11.5 20.5t-6.5 8h3q-71 53 -108 156q-6 -5 -11 -6q-17 -5 -34 12.5t-25 47.5
q-7 31 0 55.5t24 30.5q8 2 16 -1q-5 72 7 129t37 94t62 61.5t77 34.5t86 10q286 0 269 -314q9 3 16 0q17 -5 24 -30t-0.5 -55t-24.5 -48t-34 -13v0z" />
    <glyph glyph-name="xingxing" unicode="&#xe624;" 
d="M512 84l-238 -91q-23 -9 -38 2.5t-14 36.5l14 249l-161 195q-15 19 -9.5 37t29.5 24l246 64l138 211q14 21 33 21t33 -21l138 -211l246 -64q24 -6 29.5 -24t-9.5 -37l-161 -195l14 -249q1 -25 -14 -36.5t-38 -2.5l-238 91v0z" />
    <glyph glyph-name="zhejiao" unicode="&#xe64b;" 
d="M885 33h-746v53v54v692h53v-746h693v-53v0zM885 33z" />
    <glyph glyph-name="iconfontdaoru" unicode="&#xe62c;" 
d="M772 262q-4 12 -16 12l-604 1q-5 0 -7.5 -4t-1.5 -9l105 -313q4 -13 16 -12l600 -1q5 0 7.5 4t0.5 9zM450 413h-101l177 -133l174 132h-95q1 5 1 14.5t-2 38t-7 56.5t-18.5 65.5t-32.5 70t-51.5 66t-73.5 56.5t-101 38t-132 15q1 0 16 -7.5t41.5 -24t56.5 -39.5
t59.5 -58.5t52 -76t33 -96.5t3.5 -117zM252 348v-58h239l-93 70h-134q-5 0 -8.5 -3.5t-3.5 -8.5zM880 423q0 13 -9 22t-21 9h-169q-8 0 -15 -8.5t-10 -16.5l-3 -9h82l-173 -130h202q13 0 17 -12l99 -314v384v2v5v68z" />
    <glyph glyph-name="shanchu" unicode="&#xe6e0;" 
d="M224 622q0 15 10.5 25.5t25.5 10.5h180v35q0 15 10.5 25.5t25.5 10.5h72q15 0 25.5 -10.5t10.5 -25.5v-35h180q15 0 25.5 -10.5t10.5 -25.5v-36h-576v36v0zM764 515v-71v-369q0 -15 -10.5 -25.5t-25.5 -10.5h-432q-15 0 -25.5 10.5t-10.5 25.5v369v71v36h504v-36v0z
M404 444q0 14 -10.5 24.5t-25.5 10.5t-25.5 -10.5t-10.5 -24.5v-298q0 -15 10.5 -25.5t25.5 -10.5t25.5 10.5t10.5 25.5v298v0zM548 444q0 14 -10.5 24.5t-25.5 10.5t-25.5 -10.5t-10.5 -24.5v-298q0 -15 10.5 -25.5t25.5 -10.5t25.5 10.5t10.5 25.5v298v0zM692 444
q0 14 -10.5 24.5t-25.5 10.5t-25.5 -10.5t-10.5 -24.5v-298q0 -15 10.5 -25.5t25.5 -10.5t25.5 10.5t10.5 25.5v298v0zM692 444z" />
    <glyph glyph-name="fangdajing1" unicode="&#xe605;" 
d="M870 96l-176 176l-6 6q47 72 47 159q0 120 -85.5 205.5t-206.5 85.5t-206.5 -85.5t-85.5 -206t85.5 -206t206.5 -85.5q86 0 159 47q3 -5 5 -7l177 -176q17 -18 42.5 -18t43.5 18t18 43.5t-18 43.5zM443 237q-83 0 -141.5 58.5t-58.5 141t58.5 141t141 58.5t141.5 -58.5
t59 -141t-59 -141t-141 -58.5v0z" />
    <glyph glyph-name="fangdajing11" unicode="&#xe653;" horiz-adv-x="1407" 
d="M1204 4l-146 146q-10 11 -24.5 11t-24.5 -11l-4 -4l-74 74q92 113 92 260q0 113 -56 209t-151.5 151.5t-209 55.5t-209 -55.5t-151.5 -151.5t-56 -209t56 -209t151.5 -151.5t208.5 -55.5q147 0 261 91q1 -1 73 -74v0l-4 -4q-10 -10 -10 -24t10 -25l146 -146
q10 -10 24.5 -10t24.5 10l73 73q10 10 10 24.5t-10 24.5v0zM606 224q-105 0 -180 75t-75 181t75 181t181 75t181 -75t74.5 -181t-75.5 -181t-181 -75v0zM606 224z" />
    <glyph glyph-name="guanbi1" unicode="&#xe7e9;" 
d="M609 384l387 387q20 20 20 48.5t-20 48.5t-48.5 20t-48.5 -20l-387 -387l-387 387q-20 20 -48.5 20t-48.5 -20t-20 -48.5t20 -48.5l387 -387l-387 -387q-20 -20 -20 -48.5t20 -48.5t48.5 -20t48.5 20l387 387l387 -387q20 -20 48.5 -20t48.5 20t20 48.5t-20 48.5
l-387 387v0z" />
    <glyph glyph-name="guanbi2" unicode="&#xe643;" 
d="M195 67q-63 63 -97 145t-34 171.5t34 171.5t97.5 145.5t145 97.5t171.5 34t171.5 -34t145 -97.5t97.5 -145.5t34 -171.5t-34 -171.5t-97.5 -145t-145 -97t-171.5 -34t-171.5 34t-145.5 97v0zM235 661q-56 -56 -85.5 -127.5t-29.5 -150t29.5 -150t85 -127t127.5 -85
t150.5 -29.5t150 29.5t127 85t85 127t29.5 150t-29.5 150t-85 127t-127 85.5t-150 30t-150.5 -30t-127 -85v0zM563 125zM645 559v0l-133 -133l-134 133q-8 9 -20.5 9t-21.5 -9v0q-8 -9 -8 -21t8 -21l134 -133l-133 -134q-9 -9 -9 -21t8.5 -21t21 -9t21.5 9v0l133 134
l134 -134q8 -8 20.5 -8t21.5 8v0q8 9 8 21.5t-8 20.5l-134 134l133 133q9 9 9 21.5t-8.5 21t-21 8.5t-21.5 -9v0z" />
    <glyph glyph-name="shouquanicon" unicode="&#xe627;" 
d="M356 436q-12 12 -28.5 12.5t-28.5 -11t-12.5 -28t10.5 -28.5l136 -139q12 -13 29 -13v0q17 0 29 12l236 229q12 12 12.5 28.5t-11.5 28t-28.5 12t-28.5 -11.5l-208 -201zM915 755l-381 137q-10 4 -21 4t-21 -4l-381 -137q-18 -6 -29.5 -22t-11.5 -35v-396q0 -102 73 -194
q54 -69 145 -130q102 -66 204 -102q10 -4 20.5 -4t20.5 3q102 36 204 103q92 61 146 130q72 92 72 194v396q0 19 -11 35t-29 22zM870 302q0 -73 -55 -143q-45 -58 -125 -111q-83 -54 -177 -90q-93 35 -177 90q-80 53 -125 111q-55 70 -55 143v380l357 128l357 -128v-380z
" />
    <glyph glyph-name="gantanhao" unicode="&#xe641;" 
d="M621 728q0 44 -31 75t-75 31t-75.5 -31t-31.5 -75v-396q0 -44 31.5 -74.5t75.5 -30.5t75 30.5t31 74.5v396zM515 147q-44 0 -75.5 -31t-31.5 -74.5t31.5 -74.5t75.5 -31t75 31t31 74.5t-31 74.5t-75 31z" />
    <glyph glyph-name="export" unicode="&#xe64d;" 
d="M770 597v-109l125 190l-125 184v-103q-8 1 -22 1.5t-56 -3.5t-80.5 -14.5t-87.5 -38.5t-86.5 -68.5t-68 -110.5t-41.5 -159h27q33 62 73.5 108.5t78 71t79 39t71 18t59 1.5t39.5 -4l15 -3v0v0zM799 248q-3 9 -14 15.5t-24 6.5h-610q-13 0 -19.5 -6.5t-3.5 -15.5l102 -313
q3 -10 14 -16.5t23 -6.5h611q13 0 19.5 6.5t3.5 16.5l-102 313v0zM858 465h-160q-42 3 -65 -99h-278q-12 -23 -21 -44q-2 -5 -3 2q-5 21 -3 41v1h-64q-13 0 -22 -9t-9 -22v-34h528q21 0 39 -11q21 -12 28 -32l77 -237v376l-6 30q-12 38 -41 38v0z" />
    <glyph glyph-name="youjiantou" unicode="&#xe63a;" 
d="M871 387l-518 -492v984zM250 885h46v-990h-46v990zM148 885h45v-990h-45v990z" />
    <glyph glyph-name="quxiao" unicode="&#xe61f;" 
d="M511.5 833q-91.5 0 -174.5 -35.5t-143 -95.5t-95.5 -143t-35.5 -174t35.5 -174t95.5 -143t143 -95.5t174.5 -35.5t174.5 35.5t143 95.5t95.5 143t35.5 174t-35.5 174t-95.5 143t-143 95.5t-174.5 35.5zM709 247q12 -12 12 -29.5t-12 -30t-29.5 -12.5t-29.5 12l-139 139
l-138 -139q-12 -12 -29.5 -12t-30 12.5t-12.5 30t13 29.5l138 138l-138 139q-13 12 -13 29.5t12.5 29.5t30 12t29.5 -12l138 -138l139 138q12 12 29.5 12t29.5 -12t12 -29.5t-12 -29.5l-138 -139z" />
    <glyph glyph-name="yuangong" unicode="&#xe6a1;" 
d="M957.5 206.5q-3.5 -5.5 -15.5 -7.5q-9 -2 -25 -5t-41 -5q-2 12 -6 23q-3 10 -7 21t-10 19q-10 14 -22 23t-23.5 15t-23.5 9q-12 4 -23 8q-50 17 -80.5 24t-33.5 12q-2 3 -2.5 7t-0.5 9t1 11q13 4 20 5t11 2q7 1 14 4q7 2 7 7v35l-2 1l-4 2q-2 1 -3 5q5 13 11 30
q5 16 10 39q6 22 10 54q3 25 4 44.5t1 34.5v30q11 2 24.5 2t20.5 -2q17 -5 20.5 -10t7.5 -7t8 -1.5t16 -1.5q14 -2 22 -14t9 -29q0 -5 1 -16t1 -23t-1 -22.5t-3 -12.5q-3 -4 -7 -3q-2 0 -2.5 -1t-0.5 -3q0 -1 -1 -12q0 -10 -5 -30q-2 -10 -6 -18t-9 -13q-5 -7 -11 -13
q-1 -8 -1 -15v-23q1 -7 3.5 -9.5t11.5 -4.5q4 -1 18.5 -6t31.5 -12l32 -12q15 -5 21 -8q11 -6 15.5 -12.5t6.5 -16.5q1 -5 3 -19q2 -13 4 -30t4 -28q2 -13 2 -17q1 -8 -2.5 -13.5zM683 555q-6 -7 -11.5 -6.5t-5.5 -5.5q0 -3 -1 -21q-2 -17 -9 -49q-4 -17 -11 -30t-15 -24
q-10 -12 -20 -22q-1 -12 -1 -24v-21q0 -11 1 -17q1 -12 6 -16.5t20 -8.5q5 -2 17.5 -6t30.5 -11q19 -7 36 -13q32 -12 37 -13q18 -7 31 -12q14 -5 21 -8q19 -10 25.5 -21t11.5 -28q2 -9 5 -32q4 -25 7 -49q4 -26 7 -49q2 -23 3 -28q1 -13 -4.5 -22t-24.5 -14q-17 -4 -49 -8
q-31 -4 -73 -8t-92 -7q-51 -2 -106.5 -2t-106.5 2q-50 2 -93 5.5t-75 7.5q-33 4 -51 9q-4 1 -10 4t-11.5 7.5t-8.5 11t-2 14.5q1 7 5.5 31t10.5 51q6 29 11 52q5 25 7 30q4 12 11 25t25 26q9 7 32 15t49 15q25 7 48 12q22 5 29 7q14 3 25.5 7.5t11.5 11.5v58q-11 8 -21 19
q-8 9 -17 21.5t-16 26.5q-13 26 -17 48.5t-5 26t-7.5 6t-9.5 10.5q-8 17 -7 36q0 19 2 53q3 34 11.5 65.5t36.5 58.5q15 13 39.5 21t49.5 12t48 4t35 -3q13 -4 20.5 -8t12.5 -8q4 -4 7 -7.5t6 -5.5q5 -4 12.5 -2.5t27.5 -2.5q22 -5 37 -24t17 -48v-28q1 -18 1 -39t-1 -37.5
t-5 -20.5zM474 257l-39 -31l44 -116l23 103zM572 255l-28 -43l26 -102l43 116zM330 425q-1 -5 -1 -10v-10q0 -9 1 -14.5t9 -7.5q4 -2 11 -4l13 -4q8 -3 17 -6v-3q0 -2 -0.5 -4.5t-0.5 -6.5q-1 -8 -8.5 -10t-17.5 -4l-10 -2q-5 -1 -9 -2t-9 -2l-16 14l-19 -22q-2 0 -4 -1
q-4 -2 -5 -2l-12 -3l-23 26l-21 -17l10 -24q-14 -8 -26 -17q-10 -8 -21.5 -16.5t-19.5 -17.5q-7 -9 -12.5 -20t-8.5 -22q-4 -12 -6 -24q-11 1 -22 3q-10 2 -20.5 3t-17.5 3q-13 3 -15.5 14t-0.5 21q2 9 7 33t8 40q6 33 35 47q7 3 21 7q12 4 26 7q5 2 14.5 4.5l9.5 2.5l16 4
q10 2 13.5 5.5t4.5 9.5v17v12q-6 5 -10 10t-8 9.5t-7 8.5q-6 8 -11.5 20.5t-6.5 25.5q-2 13 -4 13.5t-5 2.5t-4 4.5t-2.5 10.5t-0.5 19t1 23q0 6 1 15.5t4.5 21t10.5 22.5t19 19q13 9 29.5 13t29.5 5q16 1 31 -1q-3 -23 -3 -48q-1 -21 1 -46.5t7 -48.5q4 -16 10.5 -31.5
t13.5 -27.5q7 -13 15 -25q-1 -7 -1 -12z" />
    <glyph glyph-name="yuangong1" unicode="&#xe644;" 
d="M114 -3q0 10 2 27.5t10.5 65.5t19.5 88t32 82.5t46 62.5h121l23 14h11l88 -194l20 7v85l14 5v22l-16 7l-2 16h79v-11l-12 -16l-9 -16l9 -11l12 -29l11 -48h16l65 183l142 -12q4 -3 12 -11t27.5 -37.5t35 -64t27.5 -92.5t12 -123q-5 -4 -15.5 -10.5t-41.5 -18.5t-60 -14
l-6 36l-39 -36l-18 -18h-457l-29 56l-25 -40l-64 17q-43 15 -41 28zM444 832q-4 -1 -10.5 -3t-25 -10t-34 -18t-31 -27t-22.5 -37v-132q-6 1 -9 -3q-7 -6 -7 -25t7 -26l2 2q1 -3 2.5 -9t8 -23t14.5 -32.5t21 -36t28 -37t35.5 -30.5t43.5 -20.5t52 -4.5t61 15q3 1 8.5 3.5
t21.5 13.5t30.5 25.5t31 41.5t27.5 60l16 27v50l-9 20l-3 103q-1 4 -3.5 10t-13.5 22t-25 30t-39 28.5t-54 22.5h-124z" />
    <glyph glyph-name="xlsx" unicode="&#xe6b8;" 
d="M703 896h-474q-30 3 -49 -14.5t-16 -42.5l-1 -343h1v-118h90v438h430v-240h250v-624h-680v134h-90v-153q-3 -25 15 -43t45 -18h735q27 0 46 18t19 43v662zM0 379v-296h733v296h-733zM176 120l-33 51l-34 -51h-52l60 85l-57 81h53l30 -46l31 46h51l-56 -79l61 -87h-54v0z
M297 120h-44v229h44v-229zM459 132.5q-19 -16.5 -56 -16.5q-34 0 -54 14t-26 37l44 7q3 -13 11.5 -19.5t24.5 -6.5q17 0 25 6q6 4 6 12q0 5 -3 8t-15 6q-53 12 -67 21q-20 14 -20 38q0 21 17 36t53 15q34 0 50.5 -11.5t23.5 -32.5l-42 -8q-2 10 -9.5 15t-21.5 5
q-17 0 -25 -5q-5 -3 -5 -9q0 -4 5 -8q6 -4 41 -12t49 -20q13 -11 13 -32q0 -23 -19 -39.5zM612 120l-34 51l-34 -51h-51l59 85l-57 81h54l29 -46l31 46h52l-57 -79l62 -87h-54v0z" />
    <glyph glyph-name="xls" unicode="&#xe6b9;" 
d="M703 896h-474q-30 3 -49 -14.5t-16 -42.5l-1 -343h1v-118h90v438h430v-240h250v-624h-680v134h-90v-153q-3 -25 15 -43t45 -18h735q27 0 46 18t19 43v662zM0 379v-296h733v296h-733zM257 120l-33 51l-34 -51h-52l60 85l-57 81h53l30 -46l31 46h51l-56 -79l61 -87h-54v0z
M384 120h-44v229h44v-229zM553 132.5q-19 -16.5 -56 -16.5q-34 0 -54 14t-26 37l44 7q3 -13 11.5 -19.5t24.5 -6.5q17 0 25 6q6 4 6 12q0 5 -3 8t-15 6q-53 12 -67 21q-20 14 -20 38q0 21 17 36t53 15q34 0 50.5 -11.5t22.5 -32.5l-41 -8q-3 10 -10 15t-21 5q-17 0 -25 -5
q-5 -3 -5 -9q0 -4 4 -8q6 -4 41.5 -12t49 -19.5t13.5 -32.5q0 -23 -19 -39.5z" />
    <glyph glyph-name="xiala-copy" unicode="&#xe61d;" 
d="M512.5 221q-12.5 0 -21.5 9l-260 265q-9 9 -8.5 21.5t9 21t21 8.5t21.5 -9l239 -243l238 243q9 9 21.5 9t21.5 -8.5t9 -21t-9 -21.5l-260 -265q-9 -9 -21.5 -9z" />
    <glyph glyph-name="gantanhao2" unicode="&#xe64c;" 
d="M512 894q-104 0 -198.5 -40.5t-163 -109t-109 -163t-40.5 -198.5t40.5 -198.5t109 -163t163 -109t198.5 -40.5t198.5 40.5t163 109t109 163t40.5 198.5t-40.5 198.5t-109 163t-163 109t-198.5 40.5v0zM512 -68q-92 0 -175.5 35.5t-143.5 96t-96 144t-36 175.5t36 175.5
t96 143.5t143.5 96t175.5 36t175.5 -36t143.5 -96t96 -143.5t36 -175.5t-36 -175.5t-96 -144t-143.5 -96t-175.5 -35.5v0zM512 638q-18 0 -30.5 -12.5t-12.5 -29.5v-277q0 -18 12.5 -30.5t30.5 -12.5t30.5 12.5t12.5 30.5v277q-1 17 -13 29.5t-30 12.5v0zM512 213
q-18 0 -30.5 -12.5t-12.5 -30.5t12.5 -30.5t30.5 -12.5t30.5 12.5t12 30.5t-12.5 30.5t-30 12.5v0zM512 213z" />
    <glyph glyph-name="queren" unicode="&#xe621;" 
d="M423 283l-103 101l-64 -64l167 -160l345 384l-65 64zM512 896q-139 0 -257 -68.5t-186.5 -186.5t-68.5 -257t68.5 -257t186.5 -186.5t257 -68.5q104 0 199 40.5t163.5 109t109 163.5t40.5 199t-40.5 199t-109 163.5t-163.5 109t-199 40.5zM512 -48q-179 0 -305.5 126.5
t-126.5 305.5t126.5 305.5t305.5 126.5q117 0 216.5 -58t157.5 -157.5t58 -216.5t-58 -216.5t-157.5 -157.5t-216.5 -58z" />
    <glyph glyph-name="iconjiantoushang" unicode="&#xe631;" 
d="M805 43q10 -9 24 -9.5t24 9.5q9 10 10 24t-7 24l-317 317q-20 16 -40 8q-3 -1 -13 -10l-313 -313q-12 -10 -13 -24t9 -24v0q10 -9 24 -9t24 9l296 294l292 -296v0zM805 43z" />
    <glyph glyph-name="iconjiantouxia" unicode="&#xe633;" 
d="M805 408l-292 -295l-296 293q-10 10 -24 10t-24 -10v0q-10 -10 -9 -24t13 -23l313 -313q10 -9 13 -10q20 -8 40 7l317 318q8 9 7 23.5t-10 23.5q-10 10 -24 10t-24 -10v0zM805 408z" />
    <glyph glyph-name="iconjiantouyou" unicode="&#xe634;" 
d="M329 92q-10 -10 -10 -24t10 -24t24 -10.5t24 7.5l317 317q15 20 7 40q-1 3 -10 13l-313 313q-9 12 -23 13t-24 -9v0q-10 -10 -10 -24t10 -24l294 -296l-296 -292v0zM329 92z" />
    <glyph glyph-name="icon1" unicode="&#xe607;" 
d="M782 459v112q0 6 -0.5 15t-6 36.5t-15 52t-29.5 54.5t-47.5 51.5t-72 36.5t-99.5 15t-99.5 -15t-72 -36.5t-47.5 -51.5t-29.5 -54.5t-15 -51.5t-6 -36.5t-0.5 -15.5v0v-112h-115v-521h770v521h-115v0zM551 172v-122h-78v122q-38 21 -38 64q0 31 22.5 52.5t54.5 21.5
t54.5 -21.5t22.5 -52.5q0 -43 -38 -64v0zM705 459h-386v112q1 15 3 32t13.5 46.5t30.5 52t57 39.5t89 17t89 -17t57 -39.5t30.5 -52t13.5 -46.5t3 -32v-112v0zM705 459z" />
    <glyph glyph-name="zuo-copy" unicode="&#xe622;" 
d="M368 384q-1 -22 14 -37l192 -192q14 -14 33.5 -14t34 14t14.5 33.5t-14 33.5l-162 162l162 162q14 14 14 33.5t-14 33.5t-34 14t-34 -14l-192 -192q-15 -15 -14 -37v0zM512 831q91 0 173.5 -35.5t142.5 -95.5t95.5 -142.5t35.5 -173.5t-35.5 -173.5t-95.5 -142.5
t-142.5 -95.5t-173.5 -35.5t-173.5 35.5t-142.5 95.5t-95.5 142.5t-35.5 173.5t35.5 173.5t95.5 142.5t142.5 95.5t173.5 35.5zM512 10q101 0 187.5 50t136.5 136.5t50 187.5t-50 187.5t-136.5 136.5t-187.5 50t-187.5 -50t-136.5 -136.5t-50 -187.5t50 -187.5t136.5 -136.5
t187.5 -50z" />
    <glyph glyph-name="suo1" unicode="&#xe6fe;" 
d="M775 425h-526q-34 0 -58.5 -24t-24.5 -58v-349q0 -34 24.5 -58t58.5 -24h526q34 0 58.5 24t24.5 58v349q0 34 -24.5 58t-58.5 24zM547 171v-92q0 -14 -10.5 -24t-24.5 -10t-24.5 10t-10.5 24v92q-34 20 -34 60q0 29 20 49t49 20t49 -20t20 -49q0 -40 -34 -60zM512 754
q-101 0 -172 -71.5t-71 -175.5v-108l486 -23v131q0 104 -71 175.5t-172 71.5zM339 405v104q0 72 50.5 122.5t122.5 50.5t122.5 -50.5t50.5 -122.5v-107z" />
    <glyph glyph-name="caidan" unicode="&#xe65a;" horiz-adv-x="1356" 
d="M217 673q0 -24 17 -41t41 -17t41.5 17t17.5 41.5t-17.5 41.5t-41.5 17t-41 -17.5t-17 -41.5v0zM217 673zM210 384q0 -25 17 -42t41 -17t41.5 17t17.5 41.5t-17.5 41.5t-41.5 17t-41 -17t-17 -41v0zM210 384zM210 93q0 -25 17 -42t41 -17t41.5 17t17.5 41.5t-17.5 41.5
t-41.5 17t-41 -17t-17 -41v0zM210 93zM1145 676q0 -23 -15 -39.5t-36 -16.5h-606q-22 0 -37 16.5t-15 39.5v0q0 23 15 39.5t37 16.5h606q21 0 36 -16.5t15 -39.5v0v0zM1145 676zM1145 386q0 -23 -15 -39t-36 -16h-606q-22 0 -37 16t-15 39v0q0 23 15 39.5t37 16.5h606
q21 0 36 -16.5t15 -39.5v0v0zM1145 386zM1145 95q0 -23 -15 -39t-36 -16h-606q-22 0 -37 16t-15 39v0q0 23 15 39.5t37 16.5h606q21 0 36 -16.5t15 -39.5v0v0zM1145 95z" />
    <glyph glyph-name="youjiantou1" unicode="&#xe61a;" 
d="M170 -43l759 416l-759 463l309 -463z" />
    <glyph glyph-name="wsmp-openuser" unicode="&#xe620;" 
d="M471 805q-82 -2 -140.5 -73t-55.5 -165q2 -56 27 -104.5t65 -79.5q50 -39 108 -39q59 0 110 39q42 32 67.5 83.5t24.5 110.5q-1 95 -62 162.5t-144 65.5zM528 284q-27 -9 -53 -9q-58 0 -108 38q-47 -16 -162 -74t-115 -69v-121q0 -24 31 -24h456q-67 70 -67 167
q0 47 18 92zM744 94l-18 -21l-96 103l36 33l58 -63l117 144l37 -30zM746 384q-78 0 -133 -56t-55 -135.5t55 -135.5t132.5 -56t132.5 56t55 135.5t-55 135.5t-132 56v0z" />
    <glyph glyph-name="jiantouyou" unicode="&#xe61b;" 
d="M133 -60l-69 67l391 379l-391 379l69 67l460 -446zM497 -60l-69 67l390 379l-390 379l69 67l459 -446z" />
    <glyph glyph-name="iconjiantouzuo" unicode="&#xe6b7;" 
d="M694 92l-295 292l293 296q10 10 10 24t-10 24v0q-10 10 -24 9t-23 -13l-313 -313q-9 -10 -10 -13q-8 -20 7 -40l318 -317q9 -8 23 -7.5t24 10.5t10 24t-10 24v0zM694 92z" />
    <glyph glyph-name="gouhao" unicode="&#xe638;" 
d="M236 406l204 -154l317 448l101 -76l-390 -550l-301 247z" />
    <glyph glyph-name="gantanhao1" unicode="&#xe609;" 
d="M512 -128q-139 0 -257 68.5t-186.5 186.5t-68.5 257t68.5 257t186.5 186.5t257 68.5t257 -68.5t186.5 -186.5t68.5 -257t-68.5 -257t-186.5 -186.5t-257 -68.5zM560 656q0 20 -14 34t-34 14t-34 -14t-14 -34v-352q0 -20 14 -34t34 -14t34 14t14 34v352zM512 160
q-20 0 -34 -14t-14 -34t14 -34t34 -14t34 14t14 34t-14 34t-34 14z" />
    <glyph glyph-name="geren" unicode="&#xe619;" horiz-adv-x="1223" 
d="M898 306q-90 0 -154 -63t-64 -152t64 -152t154 -63t153.5 63t63.5 152t-63.5 152t-153.5 63zM895 -49q-9 -8 -21 -8t-20 8l-92 91q-9 8 -9 19.5t8.5 20t20.5 8.5t21 -8l71 -70l139 135q8 8 20 8t20.5 -8t8.5 -20t-8 -20zM702 245h-4l-2 37v83q6 4 15 11.5t25.5 30.5
t19.5 46q5 0 9 1q17 2 33.5 27.5t24.5 50.5l8 25q-1 0 -0.5 4.5t-0.5 11.5t-3 13.5t-6.5 11.5t-10.5 5q-28 0 -31 -1l6 81l1 18q0 3 -0.5 9t-4.5 24t-10.5 34t-21.5 35.5t-35 33.5t-52.5 24t-72.5 11q-157 -2 -169 -68q-3 -14 2 -25v-0.5v-0.5q-38 -23 -38 -87q0 -87 10 -97
l-27 9q-1 0 -3 -0.5t-7.5 -3.5t-10 -7t-7.5 -13t-2 -20q2 -33 24.5 -67.5t49.5 -37.5q3 -1 7 -1q0 -18 5.5 -33.5t13.5 -25.5t16 -17t13 -10l6 -3v-80l-71 -39l-211 -69q-3 -1 -8.5 -3.5t-18.5 -12t-23 -22t-18 -35.5t-8 -50l1 -122h585q-54 68 -54 155q0 89 56 159v0z" />
    <glyph glyph-name="gantanhao11" unicode="&#xe659;" 
d="M512 892q103 0 197 -40.5t162 -108.5t108.5 -162t40.5 -197t-40.5 -197t-108.5 -162t-162 -108.5t-197 -40.5t-197 40.5t-162 108.5t-108.5 162t-40.5 197t40.5 197t108.5 162t162 108.5t197 40.5zM512 210q-32 0 -54.5 -22.5t-22.5 -54.5t22.5 -54.5t54.5 -22.5
t54.5 22.5t22.5 54.5t-22.5 54.5t-54.5 22.5zM509.5 270q27.5 0 47 19.5t19.5 46.5v310q0 27 -19.5 46.5t-47 19.5t-46.5 -19.5t-19 -46.5v-310q0 -27 19 -46.5t46.5 -19.5z" />
    <glyph glyph-name="shanchu1" unicode="&#xe637;" 
d="M512.5 830q-90.5 0 -173 -35t-142.5 -95t-95.5 -142.5t-35.5 -173.5t35.5 -173.5t95.5 -142.5t142.5 -95t173 -35t173.5 35t142.5 95t95 142.5t35.5 173.5t-35.5 173.5t-95 142.5t-142.5 95t-173.5 35zM706 241q11 -10 11 -25t-10.5 -25.5t-25.5 -10.5t-25 10l-143 143
l-143 -143q-11 -10 -25.5 -10t-25 10.5t-10.5 25.5t10 25l143 143l-143 143q-10 10 -10 25t10.5 25.5t25 10.5t25.5 -10l143 -143l143 143q10 10 25 10t25.5 -10.5t10.5 -25.5t-11 -25l-143 -143z" />
    <glyph glyph-name="you" unicode="&#xe68b;" 
d="M515.5 833q-91.5 0 -175 -35.5t-143.5 -96t-95.5 -143.5t-35.5 -174.5t35.5 -175t95.5 -143.5t143.5 -95.5t175 -35.5t174.5 35.5t143.5 95.5t96 143.5t35.5 175t-35.5 174.5t-96 143.5t-143.5 96t-174.5 35.5zM515 18q-99 0 -183 49t-133 133t-49 183.5t49 183.5
t133 133t183 49t183.5 -49t133 -133t48.5 -183.5t-48.5 -183.5t-133 -133t-183.5 -49zM377 212l80 -79l250 250l-250 251l-80 -80l171 -171z" />
    <glyph glyph-name="person-setting" unicode="&#xe650;" 
d="M531 76q1 120 106 197q-27 19 -23 57q2 14 6 27q2 8 8 15q127 146 107 320q-10 91 -76 148q-57 50 -139 55q-113 8 -187 -61q-68 -64 -72 -169q-5 -165 112 -295q5 -5 5 -7q13 -34 2.5 -60t-40.5 -36q-89 -32 -165 -78q-58 -35 -91 -73q-34 -40 -29 -95q4 -47 33 -72
q27 -22 72 -38q72 -24 185 -33q115 -10 255 -4q2 0 33 2q-104 80 -102 200v0v0zM970 93q0 25 -26 24h-17q-10 1 -16 14q-5 10 3 20q3 2 7.5 7t7.5 7q12 14 2 26q-21 22 -39 37q-14 12 -28 -3l-3.5 -3.5l-4.5 -4.5q-15 -14 -33 -4q-4 3 -5 9q-1 4 -1 12v12q-1 11 -5.5 15.5
t-14.5 4.5q-9 1 -51 0q-14 0 -15 -15q-3 -21 -4.5 -27.5t-5.5 -10.5q-14 -10 -28 1q-2 1 -12 11q-17 16 -33 0q-15 -14 -31 -30q-13 -13 -1 -28q3 -4 9.5 -11t7.5 -8q6 -7 0 -22q-3 -8 -14 -9q-21 0 -24 -1q-20 -2 -21 -21v-43q1 -21 23 -22h12.5h11.5q7 -1 10 -6
q12 -20 -9 -36q-22 -18 -2 -39l27 -27q17 -15 34 0q4 3 13 13q7 7 17 3q10 -3 13.5 -7.5t3.5 -14.5q1 -19 2 -23q3 -14 17 -13h25h7.5h8.5h7q21 0 22 21v11q-2 20 18 27q8 3 13 -3q9 -9 19 -16q16 -11 30 2q16 15 31 30q14 15 0 30l-7 7t-7 8q-5 6 -5 13.5t6 12.5q9 7 21 7
q16 1 28 8q7 5 6 12v43v0zM774 8q-26 0 -43 16t-17 42q0 24 17.5 40.5t43.5 16.5q21 0 38.5 -17t17.5 -37q0 -26 -16 -43.5t-41 -17.5v0v0z" />
    <glyph glyph-name="iconfontyoujiantou" unicode="&#xe64a;" 
d="M239 728l546 -344l-546 -344v688v0zM239 728z" />
    <glyph glyph-name="jianhao1" unicode="&#xe661;" 
d="M512 755q74 0 142 -28t120.5 -80.5t80.5 -120.5t28 -142t-28 -142t-80.5 -120.5t-120.5 -80.5t-142 -28t-142 28t-120.5 80.5t-80.5 120.5t-28 142t28 142t80.5 120.5t120.5 80.5t142 28zM512 861q-97 0 -185.5 -38t-152 -101.5t-101.5 -152t-38 -185.5t38 -185.5
t101.5 -152t152 -101.5t185.5 -38t185.5 38t152 101.5t101.5 152t38 185.5t-38 185.5t-101.5 152t-152 101.5t-185.5 38v0zM300 437h424v-106h-424v106z" />
    <glyph glyph-name="xiugai" unicode="&#xe623;" 
d="M893 688v-476q0 -59 -42 -101t-101 -42h-476q-59 0 -101 42t-42 101v476q0 59 42 101t101 42h476q59 0 101 -42t42 -101zM401 196l270 270l-143 143l-270 -270v-143h143zM331 345l76 -76l-26 -26h-28v48h-47v28zM537 538q7 -6 -2 -15l-144 -144q-9 -9 -15 -2q-7 7 2 15
l144 145q8 8 15 1zM703 497l45 46q14 14 14 34t-14 34l-75 75q-14 14 -34 14t-34 -14l-45 -46z" />
    <glyph glyph-name="edit1" unicode="&#xe64f;" 
d="M970 674q1 2 3.5 4t7 9.5t6 15t-3 19t-15.5 22.5l-118 123q-1 2 -3.5 5t-11 9t-17 8.5t-21 -1t-23.5 -14.5l-79 -85l198 -193zM849 545l-210 198l-475 -479l214 -184zM138 -45l-80 74l-20 -88v0v-63h948v63h-946l98 14v0zM317 28l-211 177l-27 -119l122 -103l116 45v0z
" />
    <glyph glyph-name="gerenshezhi" unicode="&#xe677;" 
d="M556 196q1 97 86 159q-22 16 -18 46q1 11 4 23q2 6 7 11q102 118 86 259q-8 73 -61 119q-46 40 -112 45q-92 6 -151 -50q-56 -51 -58 -137q-5 -132 90 -237q4 -5 4 -6q11 -27 2 -48t-33 -30q-72 -25 -133 -62q-47 -29 -73 -60q-28 -32 -24 -76q3 -38 27 -58
q21 -18 58 -31q58 -19 149 -27q93 -7 206 -3q2 0 27 2q-84 64 -83 161zM911 210q0 21 -21 20q-7 -1 -14 0q-8 0 -13 11q-4 8 3 15q2 2 5.5 6t5.5 6q11 12 2 21q-16 18 -31 30q-11 10 -23 -2l-3 -3t-3 -4q-13 -11 -27 -3q-3 2 -4 7v10.5t-1 9.5q-1 8 -4.5 11.5t-11.5 4.5h-41
q-11 0 -12 -12q-3 -18 -4 -23t-5 -8q-11 -8 -22 1q-1 1 -10 9q-13 12 -26 0q-12 -11 -25 -25q-11 -10 -1 -22q3 -3 8 -9t6 -7q4 -5 0 -17q-3 -7 -12 -7q-17 -1 -19 -1q-16 -2 -17 -17v-35q1 -17 19 -18q2 0 9.5 0.5t9.5 -0.5q5 -1 8 -5q10 -16 -7 -29q-18 -15 -2 -31l22 -22
q13 -12 27 0q4 3 11 10q6 6 14 3q13 -4 14 -18q1 -15 1 -18q3 -12 14 -11h20h6h7h6q16 0 17 17v9q-1 16 15 22q6 2 11 -2q7 -8 15 -14q12 -9 24 2q13 12 25 25q11 11 0 24q-2 1 -5.5 5t-5.5 7q-10 12 1 21q7 5 16 5q13 1 23 7q5 3 5 9v35zM753 141q-22 0 -35.5 13.5
t-13.5 33.5t14.5 33t35.5 13q16 0 30 -13.5t15 -29.5q0 -22 -13 -36t-33 -14z" />
    <glyph glyph-name="shang" unicode="&#xe673;" 
d="M652 431v-559h-280v559h-279l419 465l419 -465h-279z" />
    <glyph glyph-name="guanbi3" unicode="&#xe61e;" 
d="M509 700q-129 0 -220.5 -91.5t-91.5 -220.5t91.5 -220.5t220.5 -91.5t220.5 91.5t91.5 220.5t-91.5 220.5t-220.5 91.5v0zM654 271q7 -7 0 -14l-14 -14q-7 -6 -14 0l-117 118l-117 -118q-7 -6 -14 0l-14 14q-7 7 0 14l117 117l-117 117q-7 7 0 14l14 14q7 7 14 0
l117 -117l117 117q7 7 14 0l14 -14q7 -7 0 -14l-117 -117l117 -117v0z" />
    <glyph glyph-name="fangdajing2" unicode="&#xe636;" 
d="M1014 -71l-169 169q81 93 107.5 212.5t-7.5 238t-123 206.5q-68 68 -156 104.5t-185 36.5q-96 0 -184 -36.5t-156 -104.5t-104.5 -156t-36.5 -185q0 -96 36.5 -184t104.5 -156.5t156 -104.5t185 -36q181 0 316 118l169 -169q10 -10 23.5 -10t23.5 10t10 23.5t-10 23.5z
M188 121q-58 59 -89.5 134.5t-31.5 158.5t31.5 159t89.5 134q59 59 135 90.5t159 31.5t158.5 -31.5t134.5 -90.5q79 -79 107.5 -186t0.5 -214t-108 -186q-59 -59 -134.5 -90t-158.5 -31t-159 31t-135 90z" />
    <glyph glyph-name="queren1" unicode="&#xe67d;" 
d="M951 401q0 93 -35.5 177t-96 144.5t-144 96t-176.5 35.5q-89 0 -170.5 -35.5t-141 -96t-94.5 -144.5t-35 -177q0 -88 35 -170t94.5 -141t141 -94.5t170.5 -35.5q92 0 176 35.5t144.5 95t96 140.5t35.5 170v0zM304 362q-5 6 -6 14.5t4 14.5l3 5q5 6 13 7t14 -4l97 -74
q6 -5 15 -4.5t15 5.5l269 224q6 5 14.5 4.5t13.5 -6.5l-1 2q5 -5 5 -13t-6 -14l-296 -292q-6 -6 -14 -5.5t-14 5.5l-126 131v0z" />
    <glyph glyph-name="cha" unicode="&#xe697;" 
d="M99 876l-81 -68q203 -151 398 -355q-101 -101 -235 -253t-164 -180l155 -129q43 88 131 211t204 253q116 -131 204 -254.5t131 -212.5q9 10 25 26t50 49t59.5 51t29.5 9q-15 17 -78 95t-145.5 173t-166.5 181q179 183 362 319l-35 67q-196 -97 -416 -299
q-223 210 -428 317v0zM99 876z" />
    <glyph glyph-name="xiajiantou" unicode="&#xe890;" 
d="M510 -128l-341 341h228v683h227v-683h228z" />
    <glyph glyph-name="XLS" unicode="&#xe6c4;" 
d="M340 -37h-157q-15 0 -26 11t-11 26v768q0 15 11 26t26 11h439v-183q0 -30 21.5 -51.5t51.5 -21.5h183v-309q0 -9 5 -14t13 -5t13 5t5 14v345l-256 256h-475q-30 0 -51.5 -21.5t-21.5 -51.5v-768q0 -30 21.5 -51.5t51.5 -21.5h157q8 0 13 5t5 13t-5.5 13t-12.5 5zM658 790
l205 -205h-168q-15 0 -26 11t-11 26v168zM642 -73h-35l-49 84q-3 3 -6 11q-2 -6 -5 -11l-51 -84h-35l73 111l-68 110h35l44 -77q6 -12 7 -16q2 5 9 16l46 75h33l-69 -109zM790 -73h-117v221h29v-196h88v-25zM814 -31q13 -10 27 -15q17 -5 33 -5q46 0 46 33q0 8 -5.5 16
t-14.5 13l-33 18q-32 16 -44 31q-11 14 -11 33q0 28 22 44.5t57 16.5t47 -8v-31q-20 15 -51 15q-18 0 -33 -9q-13 -8 -13 -24q0 -13 9 -22q7 -6 39 -24q34 -17 45 -31q13 -15 13 -35q0 -30 -22 -44q-26 -16 -58 -16q-6 0 -31 4q-15 2 -26 9v31h4z" />
    <glyph glyph-name="XLSX" unicode="&#xe6c5;" 
d="M194 -37h-11q-15 0 -26 11t-11 26v768q0 15 11 26t26 11h439v-183q0 -30 21.5 -51.5t51.5 -21.5h183v-309q0 -9 5 -14t13 -5t13 5t5 14v345l-256 256h-475q-30 0 -51.5 -21.5t-21.5 -51.5v-768q0 -30 21.5 -51.5t51.5 -21.5h11q8 0 13 5t5 13t-5 13t-13 5zM658 790
l205 -205h-168q-15 0 -26 11t-11 26v168zM474 -73h-33l-46 78q-1 1 -2.5 5t-3.5 6l-5 -11l-48 -78h-32l69 104l-62 102h33l40 -71l7 -14q1 2 4 6.5t4 7.5l42 71h31l-64 -102zM614 -73h-109v206h27v-182h82v-24zM636 -35q11 -10 26 -13q16 -5 31 -5q44 0 44 31q0 8 -6 17
q-5 7 -12 12q-6 4 -31 17q-34 18 -41 29q-9 11 -9 31q0 26 20 40q21 15 53 15q34 0 46 -7v-30q-18 13 -48 13q-21 0 -31 -7q-12 -10 -12 -22q0 -11 9 -20q7 -7 36 -22q30 -13 42.5 -29t12.5 -33q0 -28 -20 -42q-20 -15 -55 -15q-7 0 -29 4q-13 2 -24 9v27h-2zM951 -73h-33
l-46 78q-1 1 -2 5t-3 6l-6 -11l-47 -78h-33l69 104l-64 102h33l40 -71q1 -1 2.5 -4t3 -5.5t2.5 -4.5q1 2 3.5 6.5t3.5 7.5l42 71h31l-64 -102z" />
    <glyph glyph-name="shanchu2" unicode="&#xe60a;" 
d="M910 756h-76h-1.5h-2.5h-2.5h-1.5h-261v47q0 17 -12.5 29.5t-30.5 12.5q-3 0 -10 -1q-8 1 -11 1q-18 0 -30 -12.5t-12 -29.5v-47h-255q-5 1 -9.5 1t-9.5 -1h-75q-40 0 -40 -33q0 -17 11 -26.5t29 -9.5h48l1 -681q1 -34 24 -57t56 -23h42v-1l463 1v0h42q34 0 56.5 24
t22.5 60v678h45q18 0 30 9.5t12 26.5q0 32 -42 32zM794 80q0 -42 -10 -59.5t-38 -22.5h-477q-18 4 -27 13.5t-12 29.5l-1 646l565 1v-690v82zM406 615q-15 0 -25 -10t-10 -25v-477q0 -14 10 -24.5t25 -10.5t25 10.5t10 24.5v477q0 15 -10 25t-25 10zM618 615q-15 0 -25 -10
t-10 -25v-477q0 -14 10 -24.5t25 -10.5t25 10.5t10 24.5v477q0 15 -10 25t-25 10z" />
    <glyph glyph-name="add-person" unicode="&#xe69e;" horiz-adv-x="1202" 
d="M1155 63h-95v-96q0 -19 -14 -33t-34 -14t-34 14t-14 33v96h-95q-20 0 -33.5 13.5t-13.5 33.5t13.5 34t33.5 14h95v95q0 20 14 34t34 14t34 -14t14 -34v-95h95q20 0 34 -14t14 -34t-14 -33.5t-34 -13.5v0zM851 -128v0h-803v0q-20 0 -34 14t-14 34q0 33 19 67t48 60.5
t69.5 53t77 44.5t78 35t64.5 25.5t43 14.5q7 3 15 3q17 0 31 -12l103 -87l103 87q1 2 6 7t7.5 6.5t9.5 3t17 1.5h23q20 0 34 -14t14 -33.5t-14 -33.5t-34 -14v0q-11 -6 -22 -13l-113 -96q-14 -12 -31.5 -12t-30.5 12l-114 96q-85 -29 -165 -71.5t-118 -82.5h725q20 0 34 -14
t14 -33q0 -18 -12.5 -32t-29.5 -16zM548 252q-88 0 -162 42.5t-117.5 116.5t-44 161.5t42 162t116.5 118t161.5 43.5t162 -42.5t118 -116.5t43.5 -162v-1q0 -87 -42.5 -161t-116.5 -117.5t-161 -43.5zM548 801h-2q-94 0 -160 -66.5t-66 -160.5t66 -160.5t160 -66.5t160 66
t67 160v1v1q0 93 -66 159t-159 67v0z" />
    <glyph glyph-name="chilun" unicode="&#xe65b;" 
d="M646 -37v0q-26 0 -43 18q-16 18 -43 36.5t-50 18.5q-24 0 -51 -18.5t-42 -35.5q-17 -17 -42 -17q-12 0 -22 4l-1 1l-109 61h-1q-15 11 -20 29t2 35q10 23 10 44q0 48 -34 82t-82 34h-3h-1q-14 0 -24.5 11t-13.5 30q-9 50 -9 88q0 37 9 87q3 19 14 30.5t25 10.5h3
q48 0 82 34t34 82q0 24 -10 45q-7 16 -2 34t20 29l1 1l115 63h2q9 5 21 5q25 0 42 -18q15 -16 41.5 -33.5t49.5 -17.5t49.5 17t41.5 33q17 17 42 17q12 0 22 -4l1 -1l111 -61l1 -1q15 -11 20 -29t-2 -35q-10 -19 -10 -44q0 -48 34 -82t82 -34h3q14 1 24.5 -10.5t14.5 -30.5
q9 -50 9 -87q0 -38 -9 -88q-4 -19 -14.5 -30t-24.5 -11h-3q-48 0 -82 -34t-34 -82q0 -21 10 -44q7 -17 2 -35t-20 -29h-1l-113 -63h-1q-10 -5 -21 -5zM642 17q1 -1 4 -1v0l106 58q-15 33 -15 65q0 67 46.5 116t113.5 52q8 46 8 76.5t-8 76.5q-67 4 -113.5 52.5t-46.5 115.5
q0 32 15 65l-105 58v0q-3 0 -4 -1q-16 -17 -38 -33q-49 -34 -91 -34t-91 35q-22 16 -38 33q-2 1 -4 1h-1l-108 -59q15 -33 15 -65q0 -67 -46.5 -115.5t-113.5 -52.5q-8 -45 -8 -76t8 -77q67 -3 113.5 -52t46.5 -116q0 -32 -15 -65l102 -57h1q2 0 3 1q17 18 39 34
q50 36 93 36t93 -36q23 -17 39 -35zM510 230q-64 0 -109 45t-45 109t45 109t109 45t109 -45t45 -109t-45 -109t-109 -45zM510 486q-42 0 -72 -30t-30 -72t30 -72t72 -30t72 30t30 72t-30 72t-72 30z" />
    <glyph glyph-name="804geshi_wendangxlsx" unicode="&#xe670;" 
d="M766 839l-1 1l-1 1l-50 50q-5 5 -12 5h-416q-44 0 -74.5 -31t-30.5 -74v-466h82v466q0 9 7 16t16 7h364v-152q0 -44 31 -74.5t75 -30.5h152v-580q0 -9 -6.5 -16t-16.5 -7h-599q-9 0 -16 7t-7 16v58h-82v-58q0 -43 30.5 -74t74.5 -31h599q44 0 75 31t31 74v631q0 7 -5 12
l-51 50l-0.5 1t-1.5 1zM733 662v105q0 7 5 2l125 -125q5 -5 -2 -5h-105q-10 0 -16.5 7t-6.5 16zM680 297h-612q-11 0 -19 -8t-8 -19v-181q0 -11 8 -19t19 -8h612q11 0 19 8t8 19v181q0 11 -8 19t-19 8zM258 104h-38l-28 51q-1 2 -3 9v0q-1 -3 -3 -10l-28 -50h-38l48 76
l-44 76h39l23 -47q2 -5 4 -12h1q2 6 5 13l25 46h36l-46 -75zM365 104h-89v152h33v-125h56v-27zM379 143q18 -16 41 -16q14 0 20.5 4.5t6.5 12.5q0 6 -5.5 11.5t-27.5 14.5q-36 15 -36 44q0 21 16 32.5t43 11.5q22 0 37 -6v-30q-15 11 -36 11q-11 0 -18.5 -4.5t-7.5 -11.5
q0 -6 5 -11t24 -14q23 -9 31.5 -20t8.5 -26q0 -21 -15.5 -32.5t-43.5 -11.5q-26 0 -43 8v33zM628 104h-39l-27 51q-1 2 -3 9v0q-1 -3 -4 -10l-27 -50h-39l49 76l-44 76h39l22 -47q3 -5 5 -12h1q2 6 5 13l24 46h36l-45 -75zM836 364h-38l-27 50q-2 3 -4 10v0q-1 -3 -3 -10
l-28 -50h-38l48 76l-44 75h39l23 -46q3 -6 4 -13h1q2 7 5 13l25 46h36l-46 -75zM538 577v-213h-40v213h40zM603 668v-304h-40v304h40zM474 741v-377h-40v377h40zM411 462v-98h-40v98h40zM347 616v-252h-40v252h40z" />
    <glyph glyph-name="cha1" unicode="&#xe61c;" 
d="M99 876l-81 -68q203 -151 398 -355q-101 -101 -235 -253t-164 -180l155 -129q43 88 131 211t204 253q116 -131 204 -254.5t131 -212.5q9 10 25 26t50 49t59.5 51t29.5 9q-15 17 -78 95t-145.5 173t-166.5 181q179 183 362 319l-35 67q-196 -97 -416 -299
q-223 210 -428 317z" />
    <glyph glyph-name="edit2" unicode="&#xe696;" 
d="M808 586l-137 137l69 68q17 17 41 17t41 -17l54 -55q17 -17 17 -41t-17 -41zM410 188l-136 137l372 369l136 -137zM164 76l83 222l136 -135zM778 29q15 0 25 -10t10 -24.5t-10 -24.5t-25 -10h-613q-14 0 -24 10t-10 24.5t10 24.5t24 10h613z" />
    <glyph glyph-name="xiajiantou1" unicode="&#xe6bd;" 
d="M868 313q-17 18 -41.5 18t-42.5 -18l-205 -205v711q0 24 -17.5 41.5t-42 17.5t-42 -17.5t-17.5 -41.5v-711l-205 205q-18 18 -42.5 18t-42 -17.5t-17.5 -42t18 -42.5l348 -349l349 349q18 18 18 42.5t-18 41.5v0z" />
    <glyph glyph-name="tupian" unicode="&#xe6b3;" 
d="M619 533zM555 533.5q0 -26.5 18.5 -45.5t45 -19t45.5 19t19 45.5t-19 45t-45.5 18.5t-45 -18.5t-18.5 -45zM853 768h-682q-18 0 -30.5 -12.5t-12.5 -30.5v-682q0 -18 12.5 -30.5t30.5 -12.5h682q18 0 30.5 12.5t12.5 30.5v682q0 18 -12.5 30.5t-30.5 12.5zM853 128
l-128 171l-128 -171l-256 299l-170 -214v512h682v-597z" />
    <glyph glyph-name="edit3" unicode="&#xe60c;" 
d="M267 143l247 71l-177 176zM929 625l-177 176l-390 -386l177 -176zM897 72q0 -42 -29.5 -71t-70.5 -29h-598q-41 0 -70 29t-29 71v597q0 41 29 70.5t70 29.5h296l99 100h-428q-69 0 -117.5 -49t-48.5 -118v-664q0 -69 48.5 -117.5t117.5 -48.5h664q69 0 118 48.5t49 117.5
v429l-100 -100v-295zM1011 773l-111 110q-13 14 -33.5 13t-34.5 -15l-54 -53l177 -176l54 52q14 15 15 35.5t-13 33.5z" />
    <glyph glyph-name="amy-filetype-xls" unicode="&#xed3a;" 
d="M766 839l-1 1l-1 1l-50 50q-5 5 -12 5h-416q-44 0 -74.5 -31t-30.5 -74v-466h82v466q0 9 7 16t16 7h364v-152q0 -44 31 -74.5t75 -30.5h152v-580q0 -9 -6.5 -16t-16.5 -7h-599q-9 0 -16 7t-7 16v58h-82v-58q0 -43 30.5 -74t74.5 -31h599q44 0 75 31t31 74v631q0 7 -5 12
l-51 50l-0.5 1t-1.5 1zM733 662v105q0 7 5 2l125 -125q5 -5 -2 -5h-105q-10 0 -16.5 7t-6.5 16zM680 297h-612q-11 0 -19 -8t-8 -19v-181q0 -11 8 -19t19 -8h612q11 0 19 8t8 19v181q0 11 -8 19t-19 8zM328 104h-38l-27 51q-2 2 -4 9v0q-1 -3 -3 -10l-28 -50h-38l48 76
l-44 76h39l23 -47q3 -5 4 -12h1q2 6 5 13l25 46h36l-46 -75zM435 104h-88v152h32v-125h56v-27zM449 143q18 -16 41 -16q14 0 20.5 4.5t6.5 12.5q0 6 -5.5 11.5t-27.5 14.5q-36 15 -36 44q0 21 16 32.5t43 11.5q22 0 37 -6v-30q-15 11 -35 11q-12 0 -19.5 -4.5t-7.5 -11.5
q0 -6 5 -11t24 -14q23 -9 31.5 -20t8.5 -26q0 -21 -15.5 -32.5t-43.5 -11.5q-26 0 -43 8v33zM836 364h-38l-27 50q-2 3 -4 10v0q-1 -3 -3 -10l-28 -50h-38l48 76l-44 75h39l23 -46q3 -6 4 -13h1q2 7 5 13l25 46h36l-46 -75zM538 577v-213h-40v213h40zM603 668v-304h-40v304
h40zM474 741v-377h-40v377h40zM411 462v-98h-40v98h40zM347 616v-252h-40v252h40z" />
    <glyph glyph-name="shanchu3" unicode="&#xe67f;" 
d="M512 -98h-308q-41 -1 -68.5 26t-27.5 69v594q0 21 15 26q4 2 8 2q7 0 13 -5.5t7 -12.5q1 -3 1 -14v-584q0 -30 13.5 -44t43.5 -14h190.5h225h190.5q40 0 51 28q6 13 6 32v580v11q1 22 20 23q9 0 15.5 -6t7.5 -16v-10v-584q0 -40 -17 -63.5t-55 -35.5q-5 -2 -23 -2h-308z
M825 732h-123h-2q-21 0 -36 15q-32 35 -67 67q-8 8 -19 8q-33 1 -66.5 1t-66.5 -1q-10 0 -18 -7q-36 -35 -71 -71q-12 -12 -28 -12h-1h-118.5h-138.5q-12 0 -17 4q-12 11 -12 20v0q0 7 5 12.5t12 6.5q10 1 19 1h232h1q13 0 22 10q11 12 34 34.5t33 32.5q12 13 29 13h1
q78 -1 167 0h1q15 0 26 -11l29 -29l39 -39q10 -11 26 -11h230q10 0 18 -1.5t13 -7t5 -12.5q-1 -9 -14 -20q-4 -3 -19 -3h-125zM354 327v-233q0 -9 -1 -16q-2 -17 -20 -18q-17 -2 -22 16q-1 8 -1 15v2v470q0 10 3 21q5 13 21 12q15 -1 19 -16q1 -7 1 -16v-237zM534 328v-234
q0 -10 -2 -20q-4 -13 -19 -14q-16 -1 -21 13q-3 8 -3 17v0v476q0 30 22 30q17 0 21 -15q2 -9 2 -21v-232zM713 328v-242q0 -13 -6.5 -20t-17.5 -6q-16 2 -19 17q-1 7 -1 14v2v470q0 10 1 16q1 7 7 12t13 5h3q8 -1 13.5 -6.5t6.5 -13.5v-8v-240z" />
    <glyph glyph-name="icons-queren" unicode="&#xe610;" 
d="M904 712l-519 -520l-265 265q-19 19 -45.5 19t-45.5 -19t-19 -45.5t19 -45.5l310 -310q19 -19 45.5 -19t45.5 19l565 565q19 19 19 45.5t-19 45.5t-45.5 19t-45.5 -19z" />
    <glyph glyph-name="bianji" unicode="&#xe60d;" 
d="M445 204h5q26 0 46 16l4 1l-154 154l-1 -5q-16 -20 -16 -45v-5l-55 -171zM1003 825l-51 50q-8 9 -23 15t-27 6t-27 -6t-24 -15l-48 -48l151 -151l49 49q8 8 14 23t6 27t-6 26.5t-14 23.5zM902 624l-151 151l-351 -350l151 -151l351 350v0zM625 795v101h-567
q-24 0 -41 -17t-17 -42v-906q0 -25 17 -42t42 -17h905v0q24 0 41 17t17 41v538h-99v-498h-824v825h526v0z" />
  </font>
</defs>
</svg>
